<svg xmlns="http://www.w3.org/2000/svg" width="348" height="91" viewBox="0 0 348 91">
  <g fill="none" fill-rule="evenodd">
    <path fill="#FFF" fill-rule="nonzero" d="M7 16C9.15151515 16 10.8560606 15.3333333 12.1136364 14 13.3712121 12.6666667 14 10.9922481 14 8.97674419 14 6.93023256 13.3636364 5.25581395 12.0909091 3.95348837 10.8181818 2.65116279 9.12121212 2 7 2 4.87878788 2 3.18181818 2.65116279 1.90909091 3.95348837.636363636 5.25581395 0 6.93023256 0 8.97674419 0 10.9922481.628787879 12.6666667 1.88636364 14 3.14393939 15.3333333 4.84848485 16 7 16zM172 90C174.151515 90 175.856061 89.3333333 177.113636 88 178.371212 86.6666667 179 84.9922481 179 82.9767442 179 80.9302326 178.363636 79.255814 177.090909 77.9534884 175.818182 76.6511628 174.121212 76 172 76 169.878788 76 168.181818 76.6511628 166.909091 77.9534884 165.636364 79.255814 165 80.9302326 165 82.9767442 165 84.9922481 165.628788 86.6666667 166.886364 88 168.143939 89.3333333 169.848485 90 172 90z"/>
    <polygon fill="#1FDE82" fill-rule="nonzero" points="13 70 13 21 0 21 0 70"/>
    <path fill="#1FDE82" fill-rule="nonzero" d="M35.9408867 70L35.9408867 34.3375681C37.2471264 31.9479734 39.0697865 30.753176 41.408867 30.753176 43.5049261 30.753176 44.9706486 31.3808227 45.8060345 32.6361162 46.6414204 33.8914096 47.0591133 35.9104658 47.0591133 38.6932849L47.0591133 38.6932849 47.0591133 70 60 70 60 37.7404719C59.7569787 25.9134906 55.3977833 20 46.9224138 20 42.2138752 20 38.4014778 21.9207502 35.4852217 25.7622505L35.4852217 25.7622505 35.1206897 20.907441 23 20.907441 23 70 35.9408867 70zM84.7292162 70L84.7292162 30.9312781 92.2660333 30.9312781 92.2660333 21.3551702 84.7292162 21.3551702 84.7292162 19.1971741C84.7893903 14.0119889 87.1813143 11.4193963 91.9049881 11.4193963 95.064133 11.4193963 98.4790182 12.1087562 102.149644 13.4874759L102.149644 13.4874759 104 2.65253693C98.885194.884178977 94.567696 0 91.0475059 0 84.9398258 0 80.2387173 1.66345536 76.9441805 4.99036609 73.6496437 8.31727681 71.9722882 13.0378934 71.912114 19.1522158L71.912114 19.1522158 71.912114 21.3551702 66 21.3551702 66 30.9312781 71.912114 30.9312781 71.912114 70 84.7292162 70z"/>
    <polygon fill="#1FDE82" fill-rule="nonzero" points="110 70 110 21 97 21 97 70"/>
    <path fill="#1FDE82" fill-rule="nonzero" d="M132.940887,70 L132.940887,34.3375681 C134.247126,31.9479734 136.069787,30.753176 138.408867,30.753176 C140.504926,30.753176 141.970649,31.3808227 142.806034,32.6361162 C143.64142,33.8914096 144.059113,35.9104658 144.059113,38.6932849 L144.059113,38.6932849 L144.059113,70 L157,70 L157,37.7404719 C156.756979,25.9134906 152.397783,20 143.922414,20 C139.213875,20 135.401478,21.9207502 132.485222,25.7622505 L132.485222,25.7622505 L132.12069,20.907441 L120,20.907441 L120,70 L132.940887,70 Z"/>
    <path fill="#FFF" d="M175,75 L176.150492,75 L348,83 L176.208336,91 L175.008303,91 L175.008303,91 C177.464626,91 179.410656,90.2379735 180.846393,88.7141762 C182.282131,87.1903788 183,85.2767728 183,82.9733582 C183,80.6345065 182.273482,78.7209005 180.820446,77.2325403 C179.367411,75.7441801 177.43003,75 175.008303,75 C175.00614,75.0403008 175.002648,78.3399301 175.000967,81.9320007 L175,75 Z"/>
    <path fill="#FFF" d="M0,75 L1.12389128,75 L169,83 L1.18039726,91 L0.00830330558,91 L0.00830330558,91 C2.46462567,91 4.41065571,90.2379735 5.84639342,88.7141762 C7.28213114,87.1903788 8,85.2767728 8,82.9733582 C8,80.6345065 7.27348212,78.7209005 5.82044636,77.2325403 C4.36741059,75.7441801 2.43002958,75 0.00830330558,75 C0.00614024286,75.0403008 0.00264844732,78.3399301 0.000966539961,81.9320007 L0,75 Z" transform="matrix(-1 0 0 1 169 0)"/>
    <polygon fill="#1FDE82" fill-rule="nonzero" points="180 70 180 21 167 21 167 70"/>
    <polygon fill="#1FDE82" fill-rule="nonzero" points="202.849 70 202.849 55.086 206.3 51.268 215.289 70 230 70 214.381 41.43 228.638 21.395 213.337 21.395 204.438 35.949 202.849 38.285 202.849 1 190 1 190 70"/>
    <path fill="#1FDE82" fill-rule="nonzero" d="M252.954338 20C259.255708 20 264.171994 22.1212121 267.703196 26.3636364 271.234399 30.6060606 273 36.4848485 273 44L273 44 273 47.1363636 272.996548 47.7088937C272.909086 54.9200586 271.159856 60.5777001 267.748858 64.6818182 264.248097 68.8939394 259.347032 71 253.045662 71 246.713851 71 241.789954 68.8863636 238.273973 64.6590909 234.757991 60.4318182 233 54.5606061 233 47.0454545L233 47.0454545 233 43.9090909 233.003668 43.3239109C233.094149 36.1478427 234.858528 30.4944179 238.296804 26.3636364 241.828006 22.1212121 246.713851 20 252.954338 20zM252.954338 30.6818182C250.762557 30.6818182 249.050228 31.7651515 247.817352 33.9318182 246.584475 36.0984848 245.968037 39.4242424 245.968037 43.9090909L245.968037 43.9090909 245.968037 47.1363636 245.969939 47.5650118C246.046022 56.0671252 248.404596 60.3181818 253.045662 60.3181818 257.398782 60.3181818 259.74277 56.6515152 260.077626 49.3181818L260.077626 49.3181818 260.123288 43.9090909 260.12072 43.4155443C260.076206 39.17948 259.453013 36.0182379 258.251142 33.9318182 257.003044 31.7651515 255.237443 30.6818182 252.954338 30.6818182zM293.669145 70L293.669145 37.5589837C294.888476 34.4736842 297.223048 32.9310345 300.672862 32.9310345L300.672862 32.9310345 304.866171 33.2940109 305 20.5898367C304.107807 20.1966122 302.947955 20 301.520446 20 298.011152 20 295.260223 22.0719903 293.267658 26.215971L293.267658 26.215971 292.910781 20.907441 281 20.907441 281 70 293.669145 70zM323.940887 70L323.940887 34.3375681C325.247126 31.9479734 327.069787 30.753176 329.408867 30.753176 331.504926 30.753176 332.970649 31.3808227 333.806034 32.6361162 334.64142 33.8914096 335.059113 35.9104658 335.059113 38.6932849L335.059113 38.6932849 335.059113 70 348 70 348 37.7404719C347.756979 25.9134906 343.397783 20 334.922414 20 330.213875 20 326.401478 21.9207502 323.485222 25.7622505L323.485222 25.7622505 323.12069 20.907441 311 20.907441 311 70 323.940887 70z"/>
  </g>
</svg>
