<svg xmlns="http://www.w3.org/2000/svg" width="137" height="107" viewBox="0 0 137 107">
  <g fill="none">
    <path fill="#1FDE82" d="M68.8325382,-2.43360887e-14 C74.101769,-2.43360887e-14 79.189011,4.37368608 79.189011,9.65227273 L79.189011,73.2969461 L120.59011,31.8223367 C122.396704,30.0125355 124.805494,28.9568181 127.364835,28.9568181 C132.634066,28.9568181 137,33.3305042 137,38.6090909 C137,41.1729758 135.946154,43.5860441 134.139561,45.3958452 L112.008791,67.5659091 L134.139561,89.735973 C136.096704,91.5457742 137,94.1096591 137,96.5227273 C137,101.801314 132.634066,106.175 127.364835,106.175 C124.956044,106.175 122.396704,105.2701 120.59011,103.309481 L98.4593406,81.1394176 L76.3285715,103.309481 C74.521978,105.2701 71.9626373,106.175 69.5538461,106.175 C69.4026574,106.175 69.2522124,106.171399 69.1025929,106.164279 L68.9222726,106.171117 L68.6505494,106.175 C63.3813187,106.175 59.0153846,101.801314 59.0153846,96.5227273 L59.0153846,67.5659091 C59.0153846,56.8579191 50.434066,48.2613636 39.745055,48.2613636 C29.0560439,48.2613636 20.4747252,56.8579191 20.4747252,67.5659091 L20.4747252,96.5227273 C20.4747252,101.801314 16.1087912,106.175 10.8395605,106.175 C5.57032967,106.175 1.20439561,101.801314 1.20439561,96.5227273 L1.20439561,67.5659091 C1.20439561,60.6283381 3.01098901,52.7148254 6.32307693,47.1346052 C2.55934066,45.3248041 18.2479228,30.3141691 19.9039668,34.0845881 C25.6248459,30.9174361 32.8197802,28.9568181 39.745055,28.9568181 C47.1321312,28.9568181 54.0451825,31.0571893 59.9195425,34.6922623 L59.9186813,9.65227273 C59.9186813,4.37368608 63.5633074,-2.43360887e-14 68.8325382,-2.43360887e-14 Z"/>
    <rect width="20.55" height="20.55" y="27.4" fill="#1D273B" rx="10.275"/>
  </g>
</svg>
