<svg id="Layer_1" data-name="Layer 1" xmlns="http://www.w3.org/2000/svg" viewBox="0 0 466.3 71.2"><defs><style>.cls-1,.cls-2{fill:#485666;}.cls-2,.cls-3{fill-rule:evenodd;}.cls-3{fill:#01b6cb;}</style></defs><path class="cls-1" d="M97.47.69A6.07,6.07,0,1,1,91.35,6.8,6.08,6.08,0,0,1,97.47.69ZM92.54,21h9.86v49.3H92.54Z"/><path class="cls-1" d="M115.51,24c4.34-2.46,11.74-4.24,19.83-4.24,12.52,0,21.69,7.5,21.69,25V70.31h-9.76V44c0-11.24-4.93-15-12.62-15a23,23,0,0,0-9.27,1.58V70.31h-9.87Z"/><path class="cls-1" d="M167.39,18.15C167.39,4.63,174.88,0,184.84,0a25.59,25.59,0,0,1,15.68,4.93l-3.64,8.48a18.7,18.7,0,0,0-12-4.14c-4.53,0-7.69,2.17-7.69,8.78v3h18.74v9.27H177.15v40h-9.76Z"/><path class="cls-1" d="M204.57,1.28h9.86V54c0,5.92,2.46,7.89,6.21,7.89a10.43,10.43,0,0,0,6-1.87l3.15,8.58a20.19,20.19,0,0,1-10.55,2.56c-8.38,0-14.69-4.44-14.69-17.16Z"/><path class="cls-1" d="M276.07,67.36c-4.34,2.46-11.74,4.24-19.83,4.24-12.52,0-21.69-7.5-21.69-24.95V21h9.76V47.34c0,11.24,4.93,15,12.52,15a23.21,23.21,0,0,0,9.37-1.58V21h9.87Z"/><path class="cls-1" d="M294.11.69A6.07,6.07,0,1,1,288,6.8,6.08,6.08,0,0,1,294.11.69ZM289.18,21h9.87v49.3h-9.87Z"/><path class="cls-1" d="M312.16,6.21H322V21h19.33v9.27H322V53.15c0,5.82,2.47,8.09,6.22,8.58a16,16,0,0,0,4.83-.19,17.33,17.33,0,0,0,9.07-3.75c1.09,2.86,2.17,5.62,3.16,8.48-4.14,3.26-9.47,4.93-15.58,4.93-10.06,0-17.56-4.73-17.56-18.14Z"/><path class="cls-1" d="M358,.69A6.07,6.07,0,1,1,351.9,6.8,6.08,6.08,0,0,1,358,.69ZM353.09,21H363v49.3h-9.86Z"/><path class="cls-1" d="M394.8,58.38,409.5,21h10.25l-19.82,49.3H389.68L369.85,21h10.36Z"/><path class="cls-1" d="M466.3,49.41H434.75v.39c0,7.89,5.22,12.13,13,12.13A29.82,29.82,0,0,0,463,57.79L466,66.27a34,34,0,0,1-18.25,4.93c-13.9,0-23.07-7.3-23.07-24.55V44.57c0-17.55,8.38-24.85,20.8-24.85S466.3,27,466.3,44.57Zm-31.55-7.5h21.4v-.49c0-8.68-4.44-12.43-10.66-12.43s-10.74,3.75-10.74,12.43Z"/><path class="cls-1" d="M21.59,4.7l0,0a12.31,12.31,0,0,0-.41,2A13.44,13.44,0,0,1,21.59,4.7Z"/><path class="cls-2" d="M68.81,43.34a34.68,34.68,0,0,1-68.12.18A34.43,34.43,0,0,1,21.59,4.7l0,0a12.31,12.31,0,0,0-.41,2,13.55,13.55,0,0,0,1.4,7.88A25.36,25.36,0,1,0,59.35,43,25.83,25.83,0,0,0,46.74,14.45a13.76,13.76,0,0,0,1.45-6.89c0-.08,0-.16,0-.24a13.45,13.45,0,0,0-.5-2.71l0,0A34.42,34.42,0,0,1,68.81,43.34Z"/><path class="cls-3" d="M27.66,24.73a13.66,13.66,0,0,0-6.32,15.65,13.84,13.84,0,0,0,26.82-.08,13.67,13.67,0,0,0-6.42-15.61,7.72,7.72,0,0,1-3.47-4.81,6.72,6.72,0,0,1,2.1-5.8,8.36,8.36,0,0,0,1.9-8.87A8.18,8.18,0,0,0,27,5.25a8.37,8.37,0,0,0,2,8.86,6.79,6.79,0,0,1,2.14,5.78,7,7,0,0,1-3.47,4.84"/></svg>