<svg xmlns="http://www.w3.org/2000/svg" width="80" height="61" viewBox="0 0 80 61">
  <g fill="none">
    <path fill="#FFF" d="M40.8451095,0 C43.8717171,0 46.7937916,2.51278409 46.7937916,5.54545455 L46.7937916,42.1107955 L70.5742793,18.2826705 C71.6119736,17.2428977 72.9955651,16.6363636 74.465632,16.6363636 C77.4922394,16.6363636 80,19.1491477 80,22.1818182 C80,23.6548295 79.3946784,25.0411932 78.3569847,26.0809659 L65.6452329,38.8181818 L78.3569847,51.5553977 C79.4811532,52.5951705 80,54.0681818 80,55.4545455 C80,58.487216 77.4922394,61 74.465632,61 C73.0820399,61 71.6119736,60.4801138 70.5742793,59.3536931 L57.8625277,46.6164773 L45.1507761,59.3536931 C44.1130821,60.4801138 42.6430155,61 41.2594235,61 C41.1725818,61 41.0861673,60.9979312 41.0002269,60.9938407 L40.8966523,60.9977691 L40.7405765,61 C37.7139689,61 35.2062084,58.487216 35.2062084,55.4545455 L35.2062084,38.8181818 C35.2062084,32.6661932 30.2771619,27.7272727 24.1374723,27.7272727 C17.9977827,27.7272727 13.0687361,32.6661932 13.0687361,38.8181818 L13.0687361,55.4545455 C13.0687361,58.487216 10.5609756,61 7.53436809,61 C4.50776053,61 2,58.487216 2,55.4545455 L2,38.8181818 C2,34.8323864 3.03769401,30.2858898 4.94013304,27.0799239 C2.77827051,26.0401512 11.7896771,17.4161932 12.7408967,19.5823864 C16.0269277,17.7627841 20.1596452,16.6363636 24.1374723,16.6363636 C28.3805547,16.6363636 32.3513607,17.8430755 35.7255501,19.9315093 L35.7250554,5.54545455 C35.7250554,2.51278409 37.818502,0 40.8451095,0 Z"/>
    <rect width="14" height="14" y="13" fill="#1FDE82" rx="7"/>
  </g>
</svg>
