<svg xmlns="http://www.w3.org/2000/svg" width="248" height="65" viewBox="0 0 248 65">
  <defs>
    <radialGradient id="curv-logo-a" cx="54.592%" cy="11.792%" r="124.385%" fx="54.592%" fy="11.792%" gradientTransform="matrix(1 0 0 .54237 0 .054)">
      <stop offset="0%" stop-color="#171A8F"/>
      <stop offset="100%" stop-color="#D93DB0"/>
    </radialGradient>
    <radialGradient id="curv-logo-b" cx="25.411%" cy="-65.715%" r="201.068%" fx="25.411%" fy="-65.715%" gradientTransform="matrix(.52941 0 0 1 .12 0)">
      <stop offset="0%" stop-color="#0045BA"/>
      <stop offset="100%" stop-color="#54B5E6"/>
    </radialGradient>
    <radialGradient id="curv-logo-c" cx="16.586%" cy="56.44%" r="158.264%" fx="16.586%" fy="56.44%" gradientTransform="matrix(.35088 0 0 1 .108 0)">
      <stop offset="0%" stop-color="#54B5E6"/>
      <stop offset="100%" stop-color="#3B40B5"/>
    </radialGradient>
    <radialGradient id="curv-logo-d" cx="23.952%" cy="162.379%" r="194.197%" fx="23.952%" fy="162.379%" gradientTransform="matrix(.55882 0 0 1 .106 0)">
      <stop offset="0%" stop-color="#E35203"/>
      <stop offset="100%" stop-color="#FFB359"/>
    </radialGradient>
    <radialGradient id="curv-logo-e" cx="45.653%" cy="12.393%" r="109.515%" fx="45.653%" fy="12.393%" gradientTransform="matrix(.35088 0 0 1 .296 0)">
      <stop offset="0%" stop-color="#D93DB0"/>
      <stop offset="100%" stop-color="#363BF0"/>
    </radialGradient>
  </defs>
  <g fill="none">
    <path fill="url(#curv-logo-a)" d="M9.51860889,55.5238714 C-3.17286963,42.9244025 -3.17286963,22.5094356 9.51860889,9.93615266 C12.0086063,7.46460217 14.7685057,5.50468478 17.7171335,4 L31.8149431,9.90996672 C28.7851418,11.0923629 25.9704503,12.9193363 23.5068342,15.3365006 C13.8471864,24.9265999 13.8471864,40.5072382 23.5068342,50.1255378 C25.806074,52.4097581 28.4584184,54.154145 31.2994913,55.3365412 C34.3577034,56.6256955 26.8349482,65.3838874 19.7180606,62.3745179 C16.0124898,60.8154469 12.5484102,58.5332409 9.51860889,55.5238714 Z"/>
    <path fill="url(#curv-logo-b)" d="M38.5851105,22.0690478 C37.6736645,21.1281169 36.895012,20.1065924 36.4664514,18.9520883 C36.1445278,18.0393652 35.9835661,17.4208089 35.607318,16.6672583 C34.8025092,14.9465838 33.6757769,13.3085178 32.2532774,11.884025 C31.5289494,11.1586822 30.6979844,10.5683337 29.9454882,9.94977738 C23.1850943,4.57619563 54.8684043,7.88053537 55.6209005,9.46621547 C56.2909038,10.1371576 56.9347509,10.8363076 57.5262853,11.5616504 C57.5262853,11.5616504 57.6067662,11.668437 57.6872471,11.7772384 C58.2506132,12.4481806 58.8139794,13.1735235 59.2968646,13.9008812 C59.2968646,13.8746882 59.4035018,14.0358755 59.512151,14.1970628 C59.9950363,14.9224057 60.4517653,15.6477486 60.8803259,16.4012992 L60.8803259,16.4012992 C60.8803259,16.3751063 60.9608068,16.5624865 61.0412877,16.7236738 C61.067444,16.7236738 61.067444,16.7498668 61.067444,16.7498668 C61.2827303,17.152835 61.5503293,17.610204 61.7374473,18.1199589 C62.355138,19.24827 63.0251414,20.9689445 62.9989851,21.8554746 C63.0251414,22.5808175 62.5422561,23.3605611 61.9527336,23.9509096 C61.2284057,24.6762525 59.8340745,25.02482 58.868304,24.9986271 L45.8304016,24.9986271 C43.1986769,25.02482 40.5689642,24.0576962 38.5851105,22.0690478 Z"/>
    <path fill="url(#curv-logo-c)" d="M59.0120504,14.8639387 C51.1919784,7.20217698 39.5192806,5.67022778 30.1675899,10.239871 C23.3316906,5.23886313 13.6273381,5.80528119 7.42089928,11.8806692 C6.92881295,12.390647 6.43672662,12.928845 6,13.4670429 C6.05535971,13.386414 6.10866906,13.3057851 6.08201439,13.386414 C6.27269784,13.1183229 6.46543165,12.8764362 6.62946043,12.6607539 C6.7381295,12.4994961 6.84884892,12.3644427 7.06618705,12.0963515 C7.23021583,11.8806692 7.53161871,11.5319492 7.83097122,11.2094336 C8.34971223,10.6188268 8.89715827,10.0262044 9.47125899,9.46180206 C15.8970863,3.14452731 24.2892086,0 32.6833813,0 C33.7495683,0 34.7891007,0.0544245112 35.8552878,0.161257811 C36.6754317,0.241886716 37.5222302,0.348720016 38.3423741,0.509977827 C38.3690288,0.483773433 38.5330576,0.509977827 38.6970863,0.564402338 C39.4905755,0.699455755 40.2820144,0.860713566 41.0755036,1.07438017 L41.0755036,1.07438017 C41.0755036,1.07438017 41.2661871,1.12880468 41.4589209,1.18121347 L41.4855755,1.18121347 C42.2503597,1.39689579 43.0438489,1.6387825 43.8086331,1.90687361 C43.8086331,1.90687361 43.9726619,1.96129813 44.1366906,2.04192703 C45.7503237,2.60632937 47.3085971,3.33198952 48.8115108,4.16649869 C48.8115108,4.16649869 48.9755396,4.2471276 49.1395683,4.3277565 C49.8510432,4.73090103 50.5338129,5.18847007 51.2452878,5.64402338 L51.2452878,5.64402338 C51.2452878,5.64402338 51.4359712,5.7790768 51.6,5.91211449 L51.6,5.91211449 C52.2827698,6.36968353 52.9675899,6.87966136 53.623705,7.4178593 C53.6503597,7.4178593 53.7877338,7.5246926 53.9251079,7.65974602 C54.581223,8.22414836 55.2639928,8.81475509 55.8934532,9.46180206 C56.576223,10.1330377 57.2323381,10.8324934 57.8351439,11.5319492 C57.8351439,11.5319492 57.9438129,11.6387825 58.0258273,11.7738359 C58.6265827,12.4450716 59.1740288,13.1707317 59.6661151,13.8984076 C59.6661151,13.8722032 59.7747842,14.0596654 59.9121583,14.2209232 C60.3775899,14.920379 60.8409712,15.6460391 61.2797482,16.3979036 L61.2797482,16.3979036 C61.2797482,16.3979036 61.2797482,16.3979036 61.2797482,16.424108 C61.2797482,16.3979036 61.3884173,16.5853659 61.4704317,16.7728281 C61.6898201,17.1497682 61.962518,17.6335416 62.1532014,18.1173151 C62.4546043,18.655513 62.7826619,19.3267486 63,20 C61.9358633,18.1697238 60.5969784,16.4503124 59.0120504,14.8639387 Z"/>
    <path fill="url(#curv-logo-d)" d="M38.1074151,43.0331658 C37.1782126,44.0063192 36.3843907,45.0628263 35.9474809,46.2568669 C35.6192857,47.2008466 35.4551882,47.8134957 35.0716101,48.5907681 C34.2511222,50.3974578 33.1024393,52.09162 31.652227,53.5648952 C30.8050733,54.3984314 29.9292025,55.121524 29,55.761263 L30.1220171,55.4841122 C45.6579546,63.4881432 54.2997429,56.5947991 61.7128506,47.1195768 C62.342575,45.9526262 63.0256312,44.1730265 62.9989653,43.2561367 C63.0256312,42.5059542 62.5333384,41.6995079 61.9323311,41.0889427 C61.193892,40.3387601 59.7723968,39.949082 58.7878114,40.0053457 L45.4959082,40.0053457 C42.8108617,39.9761719 40.1299177,40.9764153 38.1074151,43.0331658 Z"/>
    <path fill="url(#curv-logo-e)" d="M59.0139573,50.1427995 C51.1936041,57.814613 39.5204863,59.348572 30.1684593,54.7729337 C23.3323141,59.7805026 13.6276125,59.2133414 7.42095039,53.1299828 C6.90219073,52.619336 6.43674233,52.0804319 6,51.5415279 C6.0553617,51.6222626 6.10867297,51.7029973 6.08201734,51.6222626 C6.27270765,51.8907054 6.43674233,52.1329095 6.62948307,52.3488748 C6.73815605,52.5103441 6.84887946,52.6455747 7.0662254,52.9140176 C7.23026008,53.1299828 7.5316738,53.4791604 7.83103709,53.8020991 C8.34979676,54.3934807 8.89726249,54.9868806 9.47138386,55.5520234 C15.8974424,61.877586 24.2898665,65 32.6843412,65 C33.7505666,65 34.7901363,64.9737612 35.8563617,64.8647694 C36.6765351,64.7840347 37.5233641,64.6770613 38.3435375,64.5155919 C38.3701932,64.5418307 38.5342278,64.4893531 38.6982625,64.461096 C39.4917803,64.3258654 40.2832476,64.164396 41.0767654,63.9504491 L41.0767654,63.9504491 C41.0767654,63.9504491 41.2674557,63.8959532 41.4601964,63.8434756 L41.486852,63.8434756 C42.2516637,63.6275103 43.0451815,63.3853063 43.8099932,63.1168635 C43.8099932,63.1168635 43.9740278,63.0623675 44.1380625,62.9816329 C45.7517537,62.4164901 47.3100831,61.6898779 48.8130508,60.8542739 C48.8130508,60.8542739 48.9770855,60.7735392 49.1411202,60.6928045 C49.8526206,60.2891311 50.5354149,59.8309618 51.2469154,59.3748108 L51.2469154,59.3748108 C51.2469154,59.3748108 51.4376057,59.2395802 51.6016403,59.1063679 L51.6016403,59.1063679 C52.2844347,58.6481986 52.9692795,58.1375517 53.6254182,57.5986477 C53.6520738,57.5986477 53.7894529,57.4634171 53.9268319,57.3564436 C54.6096262,56.7913008 55.265765,56.1999193 55.9219037,55.5520234 C56.604698,54.8799072 57.2341811,54.1795338 57.8349581,53.4791604 C57.8349581,53.4791604 57.9436311,53.3721869 58.0256484,53.2369563 C58.6264254,52.56484 59.1738911,51.8382279 59.6659952,51.1095973 C59.6659952,51.1358361 59.7746682,50.948128 59.8853916,50.7866586 C60.3774956,50.0862852 60.842944,49.359673 61.2796863,48.6068221 L61.2796863,48.6068221 C61.2796863,48.6068221 61.2796863,48.6068221 61.2796863,48.5805833 C61.2796863,48.6068221 61.3883593,48.4191139 61.4703766,48.2314058 C61.689773,47.8539711 61.9624807,47.369563 62.153171,46.8851549 C62.4545847,46.3462509 62.7826541,45.6478959 63,45 C61.9378755,46.8326774 60.5989424,48.5543445 59.0139573,50.1427995 Z"/>
    <path fill="#17198F" d="M120.079417 42.8993461C117.359806 40.1794098 116 36.5774943 116 33.003578L116 15 123.998857 15 123.998857 33.003578 123.972861 33.003578C123.972861 34.5235424 124.558777 36.0715061 125.73261 37.2434786 128.078275 39.5914236 131.89173 39.5914236 134.239394 37.2434786 135.385231 36.0695062 135.973147 34.5235424 135.973147 33.003578L135.973147 15 144 15 144 32.6835855 143.974004 33.3495699C143.894015 36.8174886 142.534209 40.257408 139.894586 42.8973461 134.423368 48.3672179 125.544636 48.3672179 120.079417 42.8993461zM153 48L153 30.0004999C153 26.4013997 154.386 22.8282929 157.106 20.1069733 159.852 17.3596601 163.426 16 167 16L169 16 169 24 167 24C165.48 24 163.934 24.5858535 162.76 25.7595601 161.586 26.9052737 161 28.4528868 161 29.9985004L161 47.9980005 153 47.9980005 153 48zM82.6187683 42.3185731C76.4604106 36.0766707 76.4604106 25.942829 82.6187683 19.7009265 88.7771261 13.4330245 98.7764596 13.4330245 104.934817 19.7009265 106.214476 21.0069061 107.228206 22.5008828 108 24.0748582L101.067849 27.9687974 101.067849 27.9687974C100.667955 27.0088124 100.108105 26.1288261 99.3343109 25.3548382 96.2691282 22.234887 91.282458 22.234887 88.1892829 25.3548382 85.1241002 28.4747895 85.1241002 33.5427103 88.1892829 36.6646615 91.282458 39.7846127 96.2671288 39.7846127 99.3343109 36.6646615 100.108105 35.8906736 100.667955 35.0106873 101.067849 34.0507023L107.974007 37.9446415 108 37.9446415C107.226206 39.5186169 106.214476 41.0125936 104.934817 42.3185731 98.7744601 48.5604756 88.7771261 48.5604756 82.6187683 42.3185731zM219.825561 42.3185731C213.39148 36.0766707 213.39148 25.942829 219.825561 19.7009265 226.259642 13.4330245 236.737708 13.4330245 243.171789 19.7009265 244.4916 20.7949095 245.673244 22.420884 246.362021 24.0748582 247.764321 26.8748145 248.25925 29.9967657 247.873617 33.0107186L223.510722 33.0107186C223.867484 34.3446977 224.583069 35.6246777 225.655416 36.6646615 228.899265 39.7846127 234.098085 39.7846127 237.341934 36.6646615 238.111137 35.8906736 238.717425 35.0106873 239.129866 34.0507023L246.362021 37.9446415 246.362021 37.9446415C245.592818 39.5186169 244.520471 41.0125936 243.171789 42.3185731 236.737708 48.5604756 226.259642 48.5604756 219.825561 42.3185731zM237.341934 25.3568382C234.098085 22.2368869 228.899265 22.2368869 225.655416 25.3568382 225.133678 25.8628303 224.721237 26.4228215 224.362413 27.0108123L238.632875 27.0108123C238.304984 26.3968219 237.892543 25.8628303 237.341934 25.3568382z"/>
    <polygon fill="#17198F" points="191.439 48 177 16 185.249 16 193.501 34.265 201.751 16 210 16 195.563 48"/>
  </g>
</svg>
