<svg xmlns="http://www.w3.org/2000/svg" width="102" height="102" viewBox="0 0 102 102">
  <g fill="none" fill-rule="evenodd">
    <rect width="100" height="100" stroke="#4A90E2" rx="5" transform="translate(1 1)"/>
    <path fill="#4A90E2" fill-rule="nonzero" d="M10.0000435,0.851221579 C15.3562407,0.851221579 19.4749977,3.13915924 19.4749977,5.65212982 C19.4749977,8.16510041 15.3530668,10.4530822 10.0000435,10.4530822 C4.64375932,10.4530822 0.525002283,8.16510041 0.525002283,5.65212982 C0.525002283,3.13915924 4.64684629,0.851221579 10.0000435,0.851221579 M10.0000435,0.31884058 C4.47810643,0.31884058 0,2.7050097 0,5.65212982 C0,8.59924995 4.47810643,10.9855072 10.0000435,10.9855072 C15.5219371,10.9855072 20,8.59924995 20,5.65212982 C20,2.7050097 15.5219371,0.31884058 10.0000435,0.31884058 Z M6.8187253,5.22432917 C6.57189814,6.50773112 5.70002478,6.37462485 4.62810708,6.37462485 L5.05623937,4.13734606 C6.24376628,4.13739014 7.04998717,4.00745832 6.8187253,5.22432917 L6.8187253,5.22432917 Z M3.04375236,8.64038548 L4.19062692,8.64038548 L4.46254114,7.2207469 C5.74689455,7.2207469 6.5437241,7.315848 7.28124905,6.61548592 C8.09686129,5.85489754 8.30934048,4.50179006 7.72812056,3.82364909 C7.42503228,3.46872843 6.93746495,3.29444254 6.27502728,3.29444254 L4.06562637,3.29444254 L3.04375236,8.64038548 Z M8.84686455,1.87162952 L9.98752168,1.87162952 L9.71560746,3.29126809 C10.6999596,3.29126809 11.6124853,3.21838811 12.0531394,3.63036062 C12.5156631,4.06133572 12.2937926,4.6127193 11.7937469,7.2144421 L10.637481,7.2144421 C11.118744,4.69834116 11.2093966,4.48918045 11.0343523,4.29902234 C10.8656559,4.1152572 10.4812195,4.15326237 9.55312849,4.15326237 L8.9656042,7.2144421 L7.82499054,7.2144421 L8.84686455,1.87162952 L8.84686455,1.87162952 Z M15.781286,5.22432917 C15.5312414,6.52682189 14.634368,6.37462485 13.5906243,6.37462485 L14.0187566,4.13734606 C15.2125009,4.13739014 16.0125044,4.00745832 15.781286,5.22432917 Z M12.0063131,8.64038548 L13.1562746,8.64038548 L13.4281888,7.2207469 C14.7781512,7.2207469 15.525024,7.29993169 16.2468967,6.61548592 C17.062509,5.85489754 17.2749882,4.50179006 16.6938117,3.82364909 C16.390593,3.46872843 15.9031126,3.29444254 15.2406315,3.29444254 L13.0312306,3.29444254 L12.0063131,8.64038548 Z" transform="translate(8 46)"/>
    <path fill="#4A90E2" fill-rule="nonzero" d="M0.847323917,3.8506142 C2.09831002,1.52235132 4.60711548,0 7.49991664,0 C9.37256254,0 11.0835435,0.796265909 12.3978622,1.92015167 C12.0223664,1.84764291 11.612371,1.92913211 11.1995422,2.16478558 C10.233053,2.71791432 9.91705648,4.28350481 11.1702092,5.06979247 C11.9530338,5.55789611 12.2315308,6.77990156 12.2053644,7.52627612 C12.1795313,8.27381479 10.3857179,11.7068384 10.3857179,11.7068384 L8.63923734,5.72336909 C8.63923734,5.72336909 8.579238,5.30361656 8.579238,5.18254691 C8.579238,5.02987938 8.62973743,4.84295311 8.72406971,4.73618565 C8.789069,4.6651736 8.88823455,4.51599848 9.00556658,4.51599848 L9.83322406,4.51599848 L9.83322406,3.85078052 L5.33327405,3.85078052 L5.33327405,4.51599848 L5.47293918,4.51599848 C5.62027086,4.51599848 5.76426928,4.71373453 5.90326773,4.85575856 C6.06759923,5.02505654 6.27459694,5.66200275 6.52492749,6.32273047 L7.17925356,8.47354651 L5.76910254,11.7251319 L4.22195308,5.22645128 C4.22195308,5.22645128 4.2677859,4.78108786 4.36128489,4.70541929 C4.42211751,4.6535323 4.51594982,4.51599848 4.6241153,4.51599848 L4.66661481,4.51599848 L4.66661481,3.85078052 L0.847323917,3.85078052 L0.847323917,3.8506142 Z M1.72948078,4.97998802 C1.72948078,4.97998802 1.36548483,4.5158322 0.979155785,4.5158322 L0.587160142,4.5158322 C0.208831011,5.34735465 0,6.46408931 0,7.48752714 C0,10.5664885 1.89231231,13.2072376 4.5881157,14.3326201 L1.72948078,4.97998802 L1.72948078,4.97998802 Z M13.9540116,3.79124351 C14.09651,4.46594084 14.067177,5.28449153 13.7891801,6.18486405 C13.0640215,8.52759543 11.2688748,12.7419176 10.5738825,14.3472548 C13.1825202,13.1851191 15,10.5904364 15,7.57383918 C14.9998333,6.19234779 14.6175042,4.89916405 13.9540116,3.79124351 L13.9540116,3.79124351 Z M7.65158166,10.1169675 L5.73393628,14.7907889 C6.30026334,14.9261608 6.89125677,15 7.49991664,15 C8.13007632,15 8.74140287,14.9220032 9.32606305,14.777152 L7.65158166,10.1169675 L7.65158166,10.1169675 Z" transform="translate(78 44)"/>
    <g fill="#4A90E2" fill-rule="nonzero" transform="translate(41 39)">
      <g transform="translate(.833 20.833)">
        <path d="M.111122449.0868055556L.111122449 4.10694444 1.21598639 4.10694444 1.21598639 3.05989583 2.22151361 3.99305556 3.91678571 3.99305556 2.57209184 2.74513889C2.57209184 2.74513889 3.53945578 2.73055556 3.61260204 1.43229167 3.61260204.241145833 2.64411565.0868055556 1.52559524.0868055556L.111122449.0868055556zM1.26855442 1.17725694L2.22151361 1.17725694 2.22151361 1.89340278 1.26855442 1.89340278 1.26855442 1.17725694zM6.0507483.103125C5.4457483.0998263889 4.60671769.151909722 4.60671769 1.20989583L4.60671769 4.00399306 5.74076531 4.00399306 5.74076531 3.3203125 6.83982993 3.3203125 6.83982993 3.98767361 7.97986395 3.98767361 7.97986395 1.05798611C7.97986395.1390625 6.87967687.103125 6.29039116.103125 6.21668367.103125 6.13717687.103645833 6.0507483.103125zM5.75835034 1.11215278L6.82243197 1.11215278 6.82243197 2.21354167 5.75835034 2.21354167 5.75835034 1.11215278z"/>
        <rect width="1.173" height="3.846" x="9.116" y=".106"/>
        <polygon points="11.518 .157 11.518 4.003 14.342 4.003 14.342 2.982 12.674 2.982 12.674 .14"/>
        <path d="M18.0828401,0.122743056 L18.0828401,1.16076389 L16.1941327,1.16076389 L16.1941327,1.53506944 C16.1941327,1.53506944 16.5793197,1.53506944 17.0007993,1.53506944 C17.4222789,1.53506944 18.3026531,1.51805556 18.3026531,2.74340278 C18.3026531,3.96857639 17.6976531,4.03663194 16.4691327,4.03663194 C15.2404252,4.03663194 14.9839456,4.03663194 14.9839456,4.03663194 L14.9839456,3.10052083 C14.9839456,3.10052083 16.1757993,3.10052083 16.6891327,3.10052083 C17.202466,3.10052083 17.2309014,2.9453125 17.2309014,2.81024306 C17.2309014,2.67517361 16.9684354,2.61215278 16.4345238,2.61215278 C15.9006122,2.61215278 14.9106122,2.36875 14.9106122,1.41579861 C14.9106122,0.462847222 15.4239456,0.105381944 16.4507993,0.105381944 C17.4776531,0.105381944 18.0828401,0.122743056 18.0828401,0.122743056 L18.0828401,0.122743056 Z"/>
      </g>
      <path d="M2.23925926,19.1564444 L11.8959259,19.1564444 C11.8959259,19.1564444 9.75407407,14.3613095 10.2985185,9.9599127 C10.8431481,5.55851587 14.3644444,3.5544127 16.3611111,3.33974603 C18.3575926,3.12489683 19.4468519,4.34170635 19.4468519,4.34170635 L19.8825926,3.69752381 C19.8825926,3.69752381 17.0146296,0.834753968 13.3842593,1.15693651 C9.75388889,1.47893651 7.24907407,3.84063492 5.68814815,6.70340476 C4.12703704,9.56635714 3.21944444,11.5700952 2.60240741,14.5759762 C1.98537037,17.5818571 2.23925926,19.1564444 2.23925926,19.1564444 Z"/>
      <polygon points=".315 14.361 2.203 14.504 1.876 16.365 .098 16.15"/>
      <polygon points="3.292 10.425 3.801 9.03 2.131 8.385 1.586 9.888"/>
      <polygon points="5.652 5.63 6.632 4.485 5.361 3.662 4.345 4.771"/>
      <polygon points="8.229 1.193 9.101 2.23 10.299 1.55 9.427 .584"/>
      <polygon points="12.477 .012 12.695 1.05 14.183 1.014 14.038 .084"/>
      <polygon points="17.523 1.121 17.487 1.765 18.503 2.302 18.721 1.98"/>
      <polygon points="17.305 3.877 17.305 4.413 18.285 4.521 18.285 4.091"/>
      <polygon points="14.183 4.342 14.655 5.2 15.345 4.664 15.2 4.091"/>
      <polygon points="12.694 5.451 13.421 6.525 12.985 7.276 11.932 6.131"/>
      <polygon points="11.243 8.421 10.771 9.352 12.005 10.389 12.295 9.208"/>
      <polygon points="10.734 11.677 10.662 12.93 12.186 13.574 12.114 12.393"/>
      <polygon points="11.17 16.115 11.533 17.403 13.457 17.51 12.767 16.115"/>
    </g>
    <polygon stroke="#4A90E2" stroke-linecap="round" stroke-linejoin="round" points="62 16 67.381 26.063 82 22.563 79.758 19.5 76.619 19.938 81.552 26.938 74.825 29.125 66.933 16"/>
    <path fill="#4A90E2" fill-rule="nonzero" d="M9.99546381,22.3076923 C9.69558469,22.3076923 9.3911939,22.2280632 9.12706489,22.0775341 L6.36518558,20.4618682 C5.95339736,20.2316615 6.15480432,20.1520324 6.28912466,20.1077078 C6.83969585,19.9173642 6.95160495,19.8775981 7.53797529,19.5455515 C7.60064831,19.5101985 7.68126994,19.5233892 7.74389392,19.5633008 L9.86565514,20.8071055 C9.94181413,20.8513331 10.0491135,20.8513331 10.1207608,20.8071055 L18.3884992,16.0883291 C18.4646582,16.044053 18.5137962,15.9555493 18.5137962,15.8670456 L18.5137962,6.42958983 C18.5137962,6.33662454 18.4646582,6.25253387 18.3840856,6.20389319 L10.1207608,1.48952989 C10.0446999,1.44525378 9.94181413,1.44525378 9.86565514,1.48952989 L1.60694013,6.20825776 C1.52626946,6.25253387 1.47713146,6.3410376 1.47713146,6.43400289 L1.47713146,15.8670456 C1.47713146,15.9555493 1.5263185,16.044053 1.60694013,16.0839646 L3.871996,17.376507 C5.10299609,17.9828909 5.85497424,17.270254 5.85497424,16.548791 L5.85497424,7.23519199 C5.85497424,7.10241215 5.96237167,7.00062074 6.09674105,7.00062074 L7.14418472,7.00062074 C7.27394435,7.00062074 7.38585345,7.10241215 7.38585345,7.23519199 L7.38585345,16.5532041 C7.38585345,18.173283 6.49058066,19.1028874 4.93738828,19.1028874 C4.45836633,19.1028874 4.08232822,19.1028874 3.03493359,18.5894203 L0.86834988,17.3543932 C0.331215626,17.048922 0,16.477891 0,15.862681 L0,6.42958983 C0,5.81874436 0.331215626,5.24330039 0.86834988,4.93787766 L9.12706489,0.219101287 C9.6507622,-0.0730337624 10.344579,-0.0730337624 10.8638137,0.219101287 L19.1316501,4.94224222 C19.6687844,5.24766496 20,5.81869587 20,6.43400289 L20,15.8670456 C20,16.477891 19.6687844,17.048922 19.1316501,17.3588062 L10.8638137,22.0775341 C10.5997337,22.2280632 10.2997565,22.3076923 9.99546381,22.3076923 Z M16.669699,13.0075265 C16.669699,11.241283 15.4610611,10.772092 12.923049,10.4401424 C10.3535533,10.1036827 10.093985,9.93103983 10.093985,9.33789511 C10.093985,8.8465903 10.3133406,8.19142023 12.2157462,8.19142023 C13.9123313,8.19142023 14.5390125,8.55440676 14.7985808,9.68764245 C14.820992,9.79384693 14.9195623,9.87352453 15.0313242,9.87352453 L16.1057889,9.87352453 C16.1728265,9.87352453 16.2354995,9.84699766 16.280322,9.79825999 C16.3251445,9.74961931 16.3474576,9.6831809 16.3428479,9.61674248 C16.1773382,7.66471393 14.8657164,6.75722336 12.2157462,6.75722336 C9.85677891,6.75722336 8.45124574,7.73992997 8.45124574,9.39104585 C8.45124574,11.1793546 9.85226724,11.675218 12.1127624,11.8964046 C14.820992,12.1576482 15.0313242,12.5516231 15.0313242,13.0783779 C15.0313242,13.9903301 14.2883694,14.3797465 12.5470599,14.3797465 C10.3581631,14.3797465 9.87919015,13.8352909 9.71804497,12.759716 C9.7001454,12.6446369 9.6016242,12.5605462 9.48083888,12.5605462 L8.41093492,12.5605462 C8.27666362,12.5605462 8.17377786,12.6667992 8.17377786,12.795069 C8.17377786,14.1718476 8.93026768,15.8140888 12.5516206,15.8140888 C15.1656446,15.8096273 16.669699,14.7869121 16.669699,13.0075265 L16.669699,13.0075265 Z" transform="translate(19 11)"/>
    <path fill="#4A90E2" fill-rule="nonzero" d="M11.230447,3.22163972 C10.3632429,2.67025547 9.53123418,2.45362929 8.70313607,1.90220676 C8.19532753,1.55565847 7.480447,0.720696423 6.88668118,0 C6.78124684,1.15394878 6.43749367,1.62261008 6.02729827,1.94952076 C5.19532753,2.61907519 4.66796598,2.82387286 3.93751898,3.22163972 C3.32032753,3.54847384 0,5.85250512 0,10.1453324 C0,14.4461602 3.58594462,17.6086957 7.57031487,17.6086957 C11.5429533,17.6086957 15,14.6942142 15,10.2832167 C15,5.86035251 11.7578085,3.54847384 11.230447,3.22163972 Z M11.3280601,16.045075 C10.5429407,16.8367807 7.80851979,17.175405 6.76951503,16.2104443 C6.58203402,16.0214562 6.78124684,15.7379167 7.02343829,15.7379167 C7.02343829,15.7379167 7.68748102,16.2617011 9.0351954,16.2617011 C10.0898046,16.2617011 10.8320214,15.9583709 11.1640427,15.7103169 C11.4023236,15.5291762 11.4921915,15.8796673 11.3280601,16.045075 Z M9.19917485,13.9734795 C9.53905538,13.8316523 10.3319961,13.8238432 10.6367191,14.024698 C10.796826,14.1350208 11.2655665,14.7651086 10.8789106,14.9581161 C10.5507239,15.1235237 10.8320214,14.3397802 9.84370254,14.3397802 C9.26948972,14.3397802 9.08200871,14.5446162 8.80071125,14.772956 C8.52727296,15.0093346 8.41792801,15.0880382 8.32418751,14.9581161 C8.08977929,14.6351482 8.94528956,14.0798211 9.19917485,13.9734795 Z M12.8124937,14.6548241 C12.2187279,14.6154723 11.0351448,12.7329415 10.2734509,12.7052651 C9.06640427,12.6698178 6.20699605,15.8836102 3.97267642,14.3594178 C2.45699605,13.3118107 3.4023742,10.2319982 5.9960894,10.2163034 C7.92971044,10.1964744 9.26952769,12.1460334 10.2343829,12.1263575 C11.0663916,12.1146056 12.6484383,10.4800905 13.4296851,10.4800905 C15.3320593,10.4800905 14.3397919,14.7847845 12.8124937,14.6548241 Z" transform="translate(65 76)"/>
    <g fill="#4A90E2" fill-rule="nonzero" transform="translate(22 75)">
      <path d="M4.48248616,11.9151176 C3.91123543,11.4656893 3.30163321,11.0349953 2.88516162,10.4281395 C2.00857031,9.35802516 1.33383923,8.11930172 0.8725425,6.81731303 C0.593586961,5.97063779 0.498149638,5.06295337 0.138371535,4.24913687 C-0.237492613,3.65787667 0.203108053,3.01198277 0.850669406,2.82414878 C1.13874691,2.76863231 1.64565346,2.49664085 1.03379528,2.69124275 C0.485104249,3.09359002 0.432236092,2.3256776 0.994757203,2.27702712 C1.37866437,2.22612067 1.52000577,1.91195239 1.38857102,1.62917151 C0.9763171,1.3602207 2.38786746,1.06517912 1.67753129,0.664008879 C0.938063707,-0.134113922 2.71233473,-0.287716025 2.27448046,0.618791402 C2.16982309,1.31578791 3.51467521,0.490789648 3.20237055,1.29577845 C3.51967758,1.68243201 4.39018758,1.38395743 4.36831448,1.92607672 C4.8303959,1.95785647 4.98900037,2.34637366 5.4223427,2.37628978 C5.87216344,2.57932704 6.68676457,2.73910854 6.83958199,3.24562275 C6.39368473,3.59853486 5.36143152,2.51655224 5.31160402,3.49358323 C5.44647176,4.93720758 5.41204371,6.42428385 5.94003867,7.79895404 C6.18976471,8.63121064 6.79554158,9.28632457 7.3422709,9.93467062 C7.86565582,10.5694808 8.57452072,11.0166533 9.29711754,11.3929097 C9.93084885,11.6917767 10.6140153,11.8898115 11.3048324,12.0143803 C11.5848669,11.8001613 12.0795127,11.0036078 12.516288,11.3392569 C12.5373765,11.7170828 11.6493091,12.128552 12.4746016,12.0867675 C12.9596351,11.9404237 13.2956765,12.4614546 13.694885,11.9913302 C14.0627061,12.4270266 15.2236477,11.7131593 14.9619553,12.6036788 C14.6079642,12.8320222 14.0918376,12.6940157 13.7374542,13.008282 C13.153158,12.7162811 12.6879379,13.2691898 12.040867,13.1994509 C11.3224878,13.3281393 10.5913575,13.3799285 9.86307164,13.3810074 C8.66799633,13.2867471 7.44771293,13.2469244 6.31090043,12.8308451 C5.67030318,12.6446786 5.04539961,12.2798981 4.48248616,11.9151176 L4.48248616,11.9151176 Z M5.49168924,12.3526777 C6.11698518,12.6228055 6.72854906,12.9078424 7.41397148,12.9940596 C8.50134879,13.1450134 9.62433123,13.3779668 10.7155339,13.1657095 C10.2216727,12.9427608 9.71094088,13.2523191 9.21894334,13.0063203 C8.62895824,13.1331451 7.99561928,12.9737559 7.39553139,12.8951893 C6.71354197,12.5914181 5.97721313,12.3825937 5.33847948,11.9878972 C4.53996434,11.6963867 5.75112574,12.3618977 5.96681607,12.4159429 C6.46567957,12.699018 5.41812502,12.270678 5.27021188,12.1530734 C4.85226899,11.9185506 4.79900849,11.9675934 5.22891783,12.2055492 C5.31542936,12.2561614 5.40096003,12.3094219 5.49168924,12.3526777 L5.49168924,12.3526777 Z M4.30161625,11.5116914 C4.90778546,11.7362094 4.29896794,11.0856074 4.02158177,11.1231742 C3.89858238,10.9097399 3.55145732,10.7748721 3.79627907,10.6603081 C3.35607074,10.8132236 3.33498233,10.0790527 3.12811973,10.1841024 C2.66221297,10.0369739 2.94685748,9.51584496 2.39169279,9.19559537 C2.3410806,8.85837697 1.84035345,8.56608176 1.68096429,8.05760584 C1.61044072,7.79709041 1.11501019,7.04957977 1.41927182,7.74530121 C1.67821789,8.41502988 2.13382566,8.98902703 2.5131228,9.56184715 C2.80737971,10.1073994 3.15528945,10.6779635 3.69132744,11.0182226 C3.87219735,11.1917361 4.04649551,11.4572539 4.30161625,11.5116914 L4.30161625,11.5116914 Z M2.5576289,9.59701024 C2.59345239,9.49444512 2.74662291,9.81872221 2.5576289,9.59701024 L2.5576289,9.59701024 Z M5.03035665,11.8194179 C5.17002563,11.716802 4.82918019,11.6900181 5.03035665,11.8194179 L5.03035665,11.8194179 Z M5.38146085,11.9170608 C5.33606071,11.703537 5.18115071,12.0365988 5.38146085,11.9170608 L5.38146085,11.9170608 Z M5.76838881,12.0722508 C5.96416775,11.8855939 5.46608889,11.9545481 5.76838881,12.0722508 L5.76838881,12.0722508 Z M6.47411496,12.4706296 C6.59328896,12.285589 6.09285609,12.4009685 6.47411496,12.4706296 L6.47411496,12.4706296 Z M5.11896383,11.532762 C5.42312738,11.309328 4.72544427,11.5296464 5.11896383,11.532762 L5.11896383,11.532762 Z M5.46642165,11.7055496 C5.45135569,11.5282735 5.27876683,11.7852317 5.46642165,11.7055496 L5.46642165,11.7055496 Z M6.97140908,12.6384992 C7.21966383,12.79524 8.42091861,12.9817989 7.66879799,12.7028433 C7.54265982,12.7293265 6.27411832,12.3438499 6.97140908,12.6384992 L6.97140908,12.6384992 Z M4.52083764,10.747283 C4.49670857,10.6208233 4.1353611,10.6072486 4.52083764,10.747283 L4.52083764,10.747283 Z M5.23921682,11.1617097 C5.42656038,11.011818 4.85109197,11.0460275 5.23921682,11.1617097 L5.23921682,11.1617097 Z M5.84381667,11.5433502 C6.11237514,11.4102751 5.40861071,11.4097588 5.84381667,11.5433502 L5.84381667,11.5433502 Z M4.22805202,10.4112687 C4.51926827,10.6346097 5.40282366,10.4400078 4.6740474,10.2779704 C4.34261604,10.1013181 3.59549777,9.98028041 4.10475838,10.3844913 L4.22805202,10.4112687 L4.22805202,10.4112687 Z M6.25342225,11.6473438 C6.37485229,11.4407755 5.744554,11.5292487 6.25342225,11.6473438 L6.25342225,11.6473438 Z M5.638033,11.158387 C6.34993852,11.3595606 5.03922021,10.7077816 5.46226355,11.0840381 L5.5561315,11.1266072 L5.638033,11.158387 L5.638033,11.158387 Z M6.87185221,11.906187 C7.54619092,11.9172354 6.26264232,11.7473249 6.87185221,11.906187 L6.87185221,11.906187 Z M3.98857748,10.0606226 C3.95552981,9.84618389 3.78111157,10.078367 3.98857748,10.0606226 L3.98857748,10.0606226 Z M8.01754783,12.5112821 C8.03646421,12.2845081 7.78569288,12.6802837 8.01754783,12.5112821 L8.01754783,12.5112821 Z M5.11965043,10.7657078 C5.07865063,10.5616478 4.90896249,10.7571704 5.11965043,10.7657078 L5.11965043,10.7657078 Z M4.03266544,9.96109605 C4.41971135,9.93235579 3.50241451,9.75121933 4.03266544,9.96109605 L4.03266544,9.96109605 Z M2.74489916,9.11006467 C2.69664103,8.92429049 2.32381754,8.77637736 2.74489916,9.11006467 L2.74489916,9.11006467 Z M6.16034684,11.2867761 C6.03948444,11.1486715 6.10343104,11.3167406 6.16034684,11.2867761 L6.16034684,11.2867761 Z M8.26847237,12.5806068 C8.25742397,12.3693486 8.07294977,12.6602889 8.26847237,12.5806068 L8.26847237,12.5806068 Z M5.93925398,11.0801929 C5.97721313,10.8878214 5.60899966,11.0218303 5.93925398,11.0801929 L5.93925398,11.0801929 Z M4.37174747,10.0757698 C4.65992307,10.0430287 3.9100584,9.86813093 4.37174747,10.0757698 L4.37174747,10.0757698 Z M7.02319834,11.7170828 C7.47223436,11.5392535 6.58563832,11.6304731 7.02319834,11.7170828 L7.02319834,11.7170828 Z M5.6442124,10.7810515 C6.16141793,10.8476517 5.02852888,10.4289241 5.53043306,10.7434847 L5.6442124,10.7810515 L5.6442124,10.7810515 Z M7.44192592,11.8863786 C7.92509572,11.5979087 7.76570654,12.562679 8.26152943,11.9679858 C8.75038822,11.6109541 7.83927082,12.4093712 8.44161469,12.0316434 C8.87760533,11.7400348 9.52124326,12.1699441 9.92780818,12.3098142 C10.2201034,12.2955918 10.5044537,12.562679 10.8043995,12.4001511 C11.3814373,12.2445873 9.67572809,12.1695518 10.1228024,11.8940292 C9.59480748,12.0477294 9.20481896,11.7109034 8.94499014,11.372606 C8.35265098,11.2357765 7.6680133,10.9330843 7.37218699,10.4086204 C7.2515417,10.2120568 7.54619092,10.4365748 7.26802008,10.1147558 C6.91128264,9.79744881 6.7331591,9.43688602 6.493634,9.05111525 C6.20742012,8.89859209 6.17367867,8.44916367 6.14493955,9.03620619 C6.14729361,8.66563869 5.79938387,8.41620691 5.71434363,8.51968729 C5.71277426,8.16294984 6.08677477,8.34185801 5.82508231,8.07790957 C5.76878115,7.70812676 5.58330122,7.32274828 5.52768667,6.90509965 C5.44117514,6.70392604 5.51542596,6.27293771 5.23195848,6.7284474 C5.12887048,7.21004789 5.19782468,6.13689299 5.35839086,6.49049168 C5.5690788,6.12963463 5.28247259,6.17210572 5.27099657,6.2219332 C5.40821837,5.9173773 5.35799852,5.48511394 5.23499914,5.6498978 C5.30817102,5.32690181 5.35074018,4.46139418 5.12582982,4.61499628 C5.26216886,4.27709128 5.38448164,3.06936287 4.79204442,3.529973 C4.55222504,3.533406 4.13653813,3.61697496 3.94036686,3.71466825 C4.55605038,4.05414262 3.87827865,3.83727529 3.62727752,3.78323011 C3.59471309,4.09739839 3.34645835,3.96174596 3.03611541,3.96478662 C3.53193829,4.02609013 2.79472666,4.47169317 2.51086684,4.29857203 C2.14147634,4.47483191 2.8292528,4.91543258 2.51812518,5.05177161 C2.55647665,5.25677058 1.95256341,4.97752078 1.9997426,5.4518629 C1.64143579,5.30081103 1.95069979,6.01428592 2.13000032,5.77289718 C2.73960254,5.93807338 2.55912497,6.31393752 2.57442633,6.67136156 C2.47516366,6.87940119 2.08399816,6.18211043 2.48742437,6.21428256 C2.1690384,5.69737124 2.13539503,6.02733129 1.87095616,6.26754305 C1.80965265,6.28480611 2.54529489,6.6092734 2.08360582,6.76944721 C2.48977843,6.83232012 2.50164679,7.18788053 2.58443106,7.41279088 C2.82846812,7.66712695 2.77824827,7.13187363 3.07064155,7.43770465 C2.88555396,7.16522273 2.0912565,6.67018453 2.73077483,6.82888711 C2.72734183,6.55493396 2.61503378,6.33384891 2.81120505,6.33914555 C3.00551269,5.98780283 2.60777544,7.2058302 3.04533546,6.75914824 C3.16637313,6.7062801 3.19668159,6.40741312 3.41433361,6.78749496 C3.73036552,7.09862262 3.52850528,7.32382723 3.08250991,7.03879037 C3.16215544,7.30970291 3.67906673,7.40621918 3.58176578,7.82965482 C3.6847557,8.20208596 3.82884349,8.0648642 3.95449119,8.04338344 C4.05296917,8.40512326 4.10897606,8.13921311 4.11358609,7.96677855 C4.56448574,8.06339291 4.45874943,8.32998967 4.60009083,8.51625428 C4.91082612,8.65641861 4.15527248,7.5656083 4.68866216,8.1882559 C5.24990815,8.69516244 4.8993501,8.90663508 4.39558229,8.82542016 C4.71436059,8.79972176 4.81695817,9.25650656 5.21587244,9.24042053 C5.57947588,9.41354162 5.82586699,10.0779737 5.19900171,9.80127416 C4.98174203,9.60510287 4.21196598,9.3633218 4.84079297,9.73614527 C5.42087141,10.0050961 5.88216814,10.1656623 6.44194283,10.503273 C6.8423284,10.7890946 7.01544955,11.1166025 7.16718803,11.1814371 C6.83046006,11.3422975 6.15268834,11.053043 6.65606379,10.9645697 C6.34189553,10.9074839 5.98868912,10.7484871 6.28941967,11.1396526 C6.54532512,11.3534793 7.1955348,11.3308215 7.31245283,11.3549506 C7.21358256,11.5726026 7.04389441,11.5898657 7.31627818,11.6067364 C7.01240889,11.7687739 7.41397148,11.7940799 7.44192592,11.8863786 L7.44192592,11.8863786 Z M6.82045529,10.1312342 C6.63536771,9.93771129 6.58750195,9.57567721 6.78749854,9.89053207 C6.89019422,9.93192422 7.11588926,10.482577 6.82045529,10.1312342 L6.82045529,10.1312342 Z M8.84696504,11.4247091 C9.04382684,11.411652 8.85282404,11.5743643 8.84696504,11.4247091 L8.84696504,11.4247091 Z M6.53953547,9.65689207 C6.52698047,9.36449883 6.65319967,9.88248908 6.53953547,9.65689207 L6.53953547,9.65689207 Z M6.32737881,9.38637193 C6.09442547,8.93694357 6.62045871,9.51358898 6.32737881,9.38637193 L6.32737881,9.38637193 Z M3.88896999,7.70362712 C4.06280833,7.66700904 3.97470532,7.93810094 3.88896999,7.70362712 L3.88896999,7.70362712 Z M5.82969233,8.75528895 C5.95214285,8.43994365 5.97348225,9.01972781 5.82969233,8.75528895 L5.82969233,8.75528895 Z M4.46056671,7.80336824 C4.35519297,7.62481026 4.68105913,7.97104957 4.46056671,7.80336824 L4.46056671,7.80336824 Z M5.63499235,8.17903588 C5.41469202,7.68556705 5.79134085,7.90930037 5.68403517,8.2598584 L5.63499235,8.17903588 L5.63499235,8.17903588 Z M3.60628719,6.8261407 C3.50780921,6.66410326 3.34498706,6.18897645 3.39746288,6.04380973 C3.44454398,6.28019607 3.89975941,7.06066348 3.62041153,6.36719801 C3.31203029,5.78594257 3.98940968,6.55562057 4.05914856,6.70088537 C4.09171299,6.84497314 3.86866626,6.66145494 4.01962005,6.99975229 C3.74419559,6.61466807 3.85719024,7.21240195 3.60628719,6.8261407 L3.60628719,6.8261407 Z M2.97942191,6.39397541 C3.01624176,6.01732658 3.18474177,6.65223486 2.97942191,6.39397541 L2.97942191,6.39397541 Z M3.26141811,6.49127637 C3.39589351,6.2070242 3.48936912,6.88744424 3.26141811,6.49127637 L3.26141811,6.49127637 Z M2.5828617,5.96642016 C2.34951597,5.73415336 2.18051442,5.52042476 2.59394537,5.82233234 C2.75294218,5.82841365 2.23995432,5.33612186 2.63229685,5.66598384 C3.04455077,5.74111744 2.83572646,6.3422843 2.5828617,5.96642016 L2.5828617,5.96642016 Z M2.9392068,5.96887317 C3.10958311,5.7942092 3.02963067,6.14060697 2.9392068,5.96887317 L2.9392068,5.96887317 Z M3.15872245,6.02733129 C2.95293879,5.64224712 3.40815421,6.18897645 3.15872245,6.02733129 L3.15872245,6.02733129 Z M2.72273181,5.61085972 C2.04417539,5.00655413 3.57519405,5.9264993 2.83347049,5.72267734 L2.72273181,5.61085972 L2.72273181,5.61085972 Z M4.6671814,6.7403158 C4.37331684,6.56444824 4.58900715,5.50090572 4.68944684,6.22811262 C4.97487604,6.13571596 4.67365506,6.60397676 4.88630471,6.59936672 C4.85305368,6.8947026 4.75761636,7.00092932 4.6671814,6.7403158 L4.6671814,6.7403158 Z M5.39486781,7.16561508 C5.44391585,6.84497314 5.49815329,7.3848365 5.39486781,7.16561508 L5.39486781,7.16561508 Z M5.27688584,7.04768692 C5.33179287,6.88932777 5.28207522,7.23455975 5.27688584,7.04768692 L5.27688584,7.04768692 Z M2.85563784,5.41233439 C2.4196472,4.8107752 4.12270805,6.02075959 3.13498572,5.56485755 C3.03189772,5.53768784 2.90742705,5.52807544 2.85563784,5.41233439 L2.85563784,5.41233439 Z M4.25259345,6.14650535 C4.18211826,5.63999115 4.40961416,6.23036859 4.25259345,6.14650535 L4.25259345,6.14650535 Z M5.29953514,6.82113832 C5.43814192,6.53266852 5.31008131,7.01201297 5.29953514,6.82113832 L5.29953514,6.82113832 Z M2.92272841,5.18281401 C3.18177257,5.12729754 3.99627567,5.6376371 3.24837272,5.32847118 C3.16529418,5.23646685 2.98785727,5.27825133 2.92272841,5.18281401 L2.92272841,5.18281401 Z M5.14760484,6.29167207 C5.18414065,5.77368187 5.35217951,5.98250619 5.14915955,6.36602104 L5.14760484,6.29167207 L5.14760484,6.29167207 Z M3.11546668,5.00243453 C3.221203,4.84755732 2.83494177,4.30239737 3.17098315,4.80694986 C3.31624798,4.92229857 3.59128009,5.00008048 3.34842006,5.04873095 C3.73036552,5.38555702 3.2553368,5.13995059 3.11546668,5.00243453 L3.11546668,5.00243453 Z M5.04014195,6.13002697 C5.16451977,5.53994381 5.15012341,6.47558268 5.04014195,6.13002697 L5.04014195,6.13002697 Z M2.89871933,4.46574144 C3.0366565,4.40681682 2.9718729,4.64937867 2.89871933,4.46574144 L2.89871933,4.46574144 Z M3.39628585,4.75604342 C3.52536654,4.4851309 3.6342416,5.057951 3.39628585,4.75604342 L3.39628585,4.75604342 Z M4.82708636,5.55116307 C4.82507757,5.41266964 4.87278642,5.75314357 4.82708636,5.55116307 L4.82708636,5.55116307 Z M4.72848493,5.36142795 C4.53231366,4.87708109 4.91121846,5.61772571 4.72848493,5.36142795 L4.72848493,5.36142795 Z M4.61533299,5.04372858 C4.55925417,4.84373198 4.8063358,5.29512206 4.61533299,5.04372858 L4.61533299,5.04372858 Z M4.80430512,4.72495028 C4.66943737,4.48777921 4.97448369,3.67896508 5.00861749,4.18057501 C4.86639333,4.57134817 4.9676177,4.78978488 5.06638993,4.26561526 C5.2496139,3.85336134 5.02695951,5.0798241 4.80430512,4.72495028 L4.80430512,4.72495028 Z M5.01625081,3.54041137 C5.1163557,3.41737275 5.03851494,3.68872731 5.01625081,3.54041137 L5.01625081,3.54041137 Z M4.70130396,10.1809731 C4.56520818,10.0619521 4.71888091,10.2561355 4.70130396,10.1809731 L4.70130396,10.1809731 Z M5.36260854,10.5063137 C5.74837934,10.6055763 5.74651571,10.4464815 5.39782129,10.399008 C5.21047773,10.2247098 4.61853093,10.0396222 5.14838952,10.3775272 C5.18330801,10.4664909 5.29404669,10.4641369 5.36260854,10.5063137 L5.36260854,10.5063137 Z M3.99323502,9.59666754 C4.20549233,9.75537006 4.79361379,10.0457036 4.29592728,9.65728441 C4.4637518,9.46219213 3.97479492,9.3584175 4.13693047,9.22776744 C3.72428421,8.97519697 3.81118808,8.99785471 4.1005407,9.00589775 C3.60471782,8.78402807 4.17214321,8.80089879 4.14536583,8.68711945 C3.95419693,8.64955266 3.19550456,8.34990105 3.64189228,8.71164082 C3.18824622,8.48055111 3.53380191,8.79785812 3.39667819,8.76450902 C2.93263506,8.6380766 3.8097168,9.11781346 3.32311397,8.99863939 C3.58902412,9.20932734 4.03923718,9.5388951 3.43532394,9.22158809 C3.35607074,9.33615205 3.86758732,9.50976363 3.99323502,9.59666754 L3.99323502,9.59666754 Z M4.71848019,10.0135315 C5.60017195,10.2974894 4.28592255,9.66601406 4.71848019,10.0135315 L4.71848019,10.0135315 Z M8.46969752,12.266068 C8.48928332,12.0797295 8.26429842,12.425056 8.46969752,12.266068 L8.46969752,12.266068 Z M8.81286879,12.4232012 C9.01629838,12.2262453 8.82130418,12.7373695 9.1499891,12.3749431 C9.15342211,12.1155066 9.14008248,11.9622969 8.77226133,12.2775441 C8.67064465,12.3339433 8.62552523,12.5725856 8.81286879,12.4232012 L8.81286879,12.4232012 Z M2.75529623,8.6189499 C2.69281569,8.37334348 2.31734388,8.37442242 2.75529623,8.6189499 L2.75529623,8.6189499 Z M3.16254779,8.885939 C3.01120165,8.635036 2.62268446,8.65877268 3.16254779,8.885939 L3.16254779,8.885939 Z M5.48099791,10.2840516 C5.70747763,10.4852253 6.52050943,10.4315725 5.75573576,10.3089654 C5.64264303,10.1415332 5.03696424,10.1817483 5.48099791,10.2840516 L5.48099791,10.2840516 Z M8.66760398,12.252336 C9.01590604,11.9599428 8.33009133,12.3825937 8.66760398,12.252336 L8.66760398,12.252336 Z M9.4258817,12.7799063 C9.42928601,12.619705 9.1992735,12.8498793 9.4258817,12.7799063 L9.4258817,12.7799063 Z M9.39333955,12.6185878 C9.77911037,12.2101592 9.01973139,12.6427169 9.39333955,12.6185878 L9.39333955,12.6185878 Z M1.75295915,7.77982734 C1.42427419,7.31087994 1.54874486,7.10009391 1.23153592,6.71697141 C1.17131134,6.4238915 0.68745491,5.75945945 0.981319471,6.46332193 C1.25027027,6.87518355 1.33001389,7.51274016 1.75295915,7.77982734 L1.75295915,7.77982734 Z M9.27220383,12.4887224 C9.9822457,12.030074 8.98108564,12.2891181 9.27220383,12.4887224 L9.27220383,12.4887224 Z M9.81402885,12.7009797 C10.1695893,12.3959334 9.5891185,12.6373222 9.81402885,12.7009797 L9.81402885,12.7009797 Z M2.63455282,8.12865288 C2.73616954,7.91791252 2.37178141,8.10147379 2.63455282,8.12865288 L2.63455282,8.12865288 Z M9.70093611,12.5561072 C10.0450205,12.3343356 9.62168291,12.3683713 9.63855363,12.576411 L9.70093611,12.5561072 L9.70093611,12.5561072 Z M5.04760844,9.64764048 C5.03340653,9.41563548 4.82988489,9.66718888 5.04760844,9.64764048 L5.04760844,9.64764048 Z M5.33137842,9.79888265 C5.22725734,9.56439603 5.17169647,9.83571103 5.33137842,9.79888265 L5.33137842,9.79888265 Z M10.2530602,12.7059821 C10.6940532,12.3878904 9.98607105,12.6449728 10.1607616,12.7665009 L10.2530602,12.7059821 L10.2530602,12.7059821 Z M10.0841567,12.6243749 C10.4435425,12.3235462 9.70515381,12.7576732 10.0841567,12.6243749 L10.0841567,12.6243749 Z M10.9469179,13.2139239 C11.1880124,13.0235222 10.6538381,13.1524629 10.9469179,13.2139239 L10.9469179,13.2139239 Z M2.85563784,7.99129998 C3.17863383,8.06368717 4.14722946,8.78706867 3.57597873,8.0415198 C3.2832912,7.95491021 3.4587664,7.23957164 3.16029182,7.36600406 C3.36068077,7.7008684 3.3249776,7.84299445 2.90428832,7.63230656 C2.37599909,7.37404705 2.6073831,7.75991596 2.71086345,7.86643693 C2.5698163,7.898609 2.89702997,7.98865166 2.85563784,7.99129998 L2.85563784,7.99129998 Z M1.38327439,6.82849477 C1.44104684,6.58896967 0.850277063,5.5119894 1.10431886,6.28863146 C1.19583275,6.45145359 1.18631844,6.75983484 1.38327439,6.82849477 L1.38327439,6.82849477 Z M4.11004045,8.52829037 C3.89043656,8.31908629 4.09944156,8.49834085 4.11004045,8.52829037 L4.11004045,8.52829037 Z M4.49553155,8.59021084 C4.49553155,8.33656137 4.04267017,8.48712281 4.49553155,8.59021084 L4.49553155,8.59021084 Z M8.04731045,10.8510739 C7.97953324,10.6285513 7.77953666,10.8461598 8.04731045,10.8510739 L8.04731045,10.8510739 Z M8.25613608,10.9871872 C8.21294708,10.8217965 8.08806708,11.0193279 8.25613608,10.9871872 L8.25613608,10.9871872 Z M9.63242982,11.8778422 C9.78548502,11.7072621 9.44119407,11.8557455 9.63242982,11.8778422 L9.63242982,11.8778422 Z M2.1185243,7.01927041 C2.50586447,6.86469693 1.70352399,6.90900531 2.1185243,7.01927041 L2.1185243,7.01927041 Z M7.73461342,10.5541795 C7.73010146,10.3035707 7.4875357,10.61666 7.73461342,10.5541795 L7.73461342,10.5541795 Z M1.9656088,6.698805 C2.21425588,6.5556784 1.73530373,6.6047265 1.9656088,6.698805 L1.9656088,6.698805 Z M2.72043039,7.03874702 C2.71323221,6.89829882 2.590361,7.09248222 2.72043039,7.03874702 L2.72043039,7.03874702 Z M11.4941377,12.4097635 C11.8139949,12.345027 12.5431635,12.5725856 12.6607682,12.3251156 C12.272251,12.3155032 11.3170931,12.0507701 11.2718756,12.3878904 L11.3569158,12.4013281 L11.4941377,12.4097635 L11.4941377,12.4097635 Z M2.93005798,7.06713709 C2.9367201,6.81309533 2.70207793,7.05762281 2.93005798,7.06713709 L2.93005798,7.06713709 Z M1.01888627,5.75033749 C0.932668992,5.26638297 0.690887906,5.67706752 1.01888627,5.75033749 L1.01888627,5.75033749 Z M1.47135529,5.86411682 C1.47714234,5.70855301 1.05713967,5.72424671 1.47135529,5.86411682 L1.47135529,5.86411682 Z M1.7684004,6.00928574 C1.64084199,5.90583294 1.6689651,6.13935514 1.7684004,6.00928574 L1.7684004,6.00928574 Z M3.37366596,7.07239677 C3.46861737,6.95203657 3.14891522,6.98350767 3.37366596,7.07239677 L3.37366596,7.07239677 Z M1.55796491,5.70472767 C1.51392446,5.33916251 1.03340294,5.6498978 1.55796491,5.70472767 L1.55796491,5.70472767 Z M0.665570061,5.12440343 C0.643305931,4.89654617 0.511227737,5.21029726 0.665570061,5.12440343 L0.665570061,5.12440343 Z M0.809142336,5.01229365 C0.770640456,4.77850158 0.606421556,5.04174686 0.809142336,5.01229365 L0.809142336,5.01229365 Z M1.53040284,5.45333419 C1.8530065,5.32690181 0.942967986,5.19124938 1.4644893,5.42959747 L1.53040284,5.45333419 L1.53040284,5.45333419 Z M11.7389594,11.7604878 C11.9454296,11.5687373 11.4768746,11.7011436 11.7389594,11.7604878 L11.7389594,11.7604878 Z M12.9789529,12.3982874 C13.0689243,12.153858 12.7524256,12.4304596 12.9789529,12.3982874 L12.9789529,12.3982874 Z M1.60847901,5.05373332 C1.64261281,4.8169546 1.35257359,5.10081442 1.60847901,5.05373332 L1.60847901,5.05373332 Z M0.523063389,4.32652643 C0.464800523,3.99244676 0.472843545,3.40579659 1.03036229,3.60392957 C0.28628467,3.7518427 1.5457042,4.52917135 1.38670739,3.91535146 C1.69969865,3.9307509 1.99895791,3.73036195 1.83456639,4.03413316 C2.45142694,3.96635599 2.87868796,3.43149503 3.4744601,3.50662862 C3.93840515,3.44493276 4.44570404,3.39853825 4.94574461,3.21158704 C5.35682149,3.18206326 5.75259703,2.73950088 5.52739241,2.47702373 C4.96683302,2.42955028 4.3797905,2.49968151 3.76028164,2.62307323 C3.0736822,2.76559166 2.44995566,3.03679844 1.75717683,3.15332417 C1.08166107,3.24415147 1.89282926,3.40314828 1.69930631,3.43875336 C1.34717888,3.56096806 2.11960325,3.64336 1.65369649,3.77244069 C1.36601132,3.7177089 1.06635971,3.61883859 1.1893591,3.31536163 C0.54258243,3.39971528 -0.0260199872,3.6678814 0.485104249,4.32613409 L0.523063389,4.32652643 L0.523063389,4.32652643 Z M2.08213453,3.53262131 C2.23348066,2.97402363 2.89438167,3.99244676 2.33038927,3.60697022 C2.2632987,3.55635804 2.15216767,3.51535824 2.08213453,3.53262131 L2.08213453,3.53262131 Z M2.11156022,3.27900496 C2.33038927,3.06573109 2.22769361,3.39900364 2.11156022,3.27900496 L2.11156022,3.27900496 Z M2.38933874,3.26631882 C2.40934821,3.00923637 3.02581641,3.40236359 2.49095545,3.35871548 L2.38933874,3.26631882 L2.38933874,3.26631882 Z M2.76942057,3.11977183 C2.96317541,2.93642673 2.82557942,3.2822043 2.76942057,3.11977183 L2.76942057,3.11977183 Z M2.8668196,3.04837254 C3.09820361,2.77059403 4.17596855,2.87093563 3.3870658,3.02110474 C3.17559318,2.86171558 3.01355571,3.11497269 2.8668196,3.04837254 L2.8668196,3.04837254 Z M4.27366184,2.83150521 C4.23884145,2.07242049 4.97291432,3.10084836 4.27366184,2.83150521 L4.27366184,2.83150521 Z M4.67296846,2.82915115 C4.81891988,2.44681335 5.23960916,2.67554905 4.74074563,2.75215393 C4.75143696,2.79315372 4.72583661,2.94989457 4.67296846,2.82915115 L4.67296846,2.82915115 Z M1.45105157,4.85756205 C1.88704221,4.59047487 0.988185463,4.6257857 1.45105157,4.85756205 L1.45105157,4.85756205 Z M1.77365522,4.95765372 C1.92657072,4.77548861 1.44104684,4.88373165 1.77365522,4.95765372 L1.77365522,4.95765372 Z M0.823499684,4.27287359 C1.07253911,4.08131235 0.528458099,4.20009405 0.823499684,4.27287359 L0.823499684,4.27287359 Z M13.7169754,12.3287122 C13.7256926,12.1059956 13.4882088,12.4288659 13.7169754,12.3287122 L13.7169754,12.3287122 Z M12.4182472,11.4353808 C12.4700515,11.1798677 12.1838297,11.4576462 12.4182472,11.4353808 L12.4182472,11.4353808 Z M14.0600578,12.4147659 C14.4083599,12.4159429 15.1155574,12.3062831 14.3577478,12.3066744 C14.2385737,12.3251156 13.6646746,12.3212903 14.0600578,12.4147659 L14.0600578,12.4147659 Z M2.05722079,4.79007913 C2.33921698,4.77095244 2.49821379,4.47934385 2.00239092,4.49582224 C1.23418423,4.41656904 2.68016264,4.75908408 1.90391294,4.66099844 C1.799746,4.72995264 2.05104139,4.80930392 2.05722079,4.79007913 L2.05722079,4.79007913 Z M2.34252661,4.92803184 C2.29213937,4.71202302 2.19337367,5.04283045 2.34252661,4.92803184 L2.34252661,4.92803184 Z M2.60951188,4.15295437 C2.75281459,3.95691184 2.41088926,4.1004905 2.60951188,4.15295437 L2.60951188,4.15295437 Z M1.66213185,2.56284865 C2.16560541,2.39198348 2.85377421,2.19963755 3.09133762,2.6472023 C2.84955653,2.3563784 2.99364432,2.06977218 3.22198768,2.49546383 C3.54498367,2.9257655 3.70662879,2.2996849 3.49662745,2.15520476 C3.73615257,2.45250232 4.00814404,2.59315712 3.65680129,2.17403721 C4.03884483,1.7146041 2.89241995,2.2341637 2.63190451,2.22876899 C2.50664916,2.28507014 1.33766457,2.52685123 1.66213185,2.56284865 L1.66213185,2.56284865 Z M1.95717343,1.99816966 C2.244172,1.78169467 2.94989813,2.12725036 2.49703676,1.78277361 C2.45260397,1.74373553 1.50548909,2.04407374 1.95717343,1.99816966 L1.95717343,1.99816966 Z M3.00355097,2.04142543 C3.33920001,2.04986079 2.85877658,1.59003534 3.25876979,1.79846732 C3.19324859,1.58395403 2.79286303,1.54373892 2.59708411,1.457914 C2.48634543,1.65408526 2.82228872,2.04407374 3.00355097,2.04142543 L3.00355097,2.04142543 Z M2.14370528,1.11278201 C2.2648624,0.894859544 1.93106636,1.22371201 2.14370528,1.11278201 L2.14370528,1.11278201 Z M2.56834502,1.19386747 C3.10967963,1.12226496 2.43033853,0.960914092 2.45907762,1.1881785 L2.56834502,1.19386747 L2.56834502,1.19386747 Z M1.76982988,0.569356241 C1.38857102,0.0716697363 2.48673777,0.652925203 2.09929952,0.13179623 C1.77326288,-0.127542185 1.46027162,0.424189504 1.76982988,0.569356241 L1.76982988,0.569356241 Z M6.66067383,3.20354401 C6.83546244,2.89388767 5.93925398,2.78589538 6.54306914,3.09388427 C6.59858561,3.11232438 6.58603066,3.22492668 6.66067383,3.20354401 L6.66067383,3.20354401 Z"/>
      <path d="M3.11177442.439135796C3.07315093.591868588 3.04916308.848083166 3.04017523 1.20771879 3.04017523 1.27840705 3.00835336 1.31375118 2.94458818 1.31375118 2.88076227 1.31375118 2.83636956 1.28290098 2.81122785 1.22144349 2.74290802 1.05516819 2.67817117.939176279 2.61647077.872981947 2.543657.795674256 2.44685539.748913121 2.32612664.733002193 2.19634931.71241515 1.87302947.702212719 1.3561064.702212719 1.23774608.702212719 1.16019547.714783568 1.12387968.739925268 1.1011064.755775475 1.08975012.789965754 1.08975012.842374664L1.08975012 2.38980381C1.08975012 2.44221272 1.12272583 2.46711151 1.18861652 2.464986 1.39145053 2.46261758 1.68513474 2.44883215 2.06991207 2.42393337 2.14509425 2.4147026 2.19586348 2.39028964 2.22197684 2.35039086 2.24833312 2.3105528 2.27396065 2.20761758 2.29885944 2.04128154 2.31470964 1.95018843 2.36833312 1.9148443 2.45942624 1.93549207 2.53679466 1.951403 2.57001328 1.98674713 2.55859628 2.04128154 2.49477036 2.3511196 2.47412259 2.75417628 2.49689587 3.25063377 2.49932502 3.30972284 2.46179466 3.34172689 2.38424405 3.34628154 2.32041814 3.35314389 2.28058008 3.31895361 2.26466915 3.24377142 2.20564081 2.95913579 2.0955396 2.80707102 1.93515498 2.78757709 1.77458818 2.76838681 1.51315093 2.75867021 1.15114689 2.75867021 1.11015498 2.75867021 1.08975012 2.77336656 1.08975012 2.80300219L1.08975012 4.34022891C1.08975012 4.45409531 1.13171368 4.53164592 1.21594446 4.57245564 1.28213879 4.60664592 1.42442624 4.63743539 1.64292826 4.66476333 1.75466915 4.6761196 1.80349506 4.72524916 1.79001328 4.81160543 1.77622785 4.88678762 1.67614689 4.91642324 1.48922381 4.90051232.949527451 4.85715199.504264293 4.85952041.153677248 4.90743539.0556610539 4.92091717.00683514293 4.88107911.00683514293 4.78786049.00683514293 4.72852851.0556610539 4.69439895.153677248 4.68535037.376855386 4.66020867.488353362 4.46429774.488353362 4.09779976L.488353362 1.17352851C.488353362 1.02340705.461571985.907840248.408191418.826949561.354567936.746058873.254912066.672516363.109284536.606564943.0181914182.565573043-.0159381364.509824055.00683514293.439135796.0181914182.395957658.0364707705.371969804.0613695557.367475877.0841428352.360613529.144628665.365107455.242341216.381200573.385903969.403973852.72416308.415390857 1.25693636.415390857 1.88560032.415390857 2.42857603.401605431 2.88647077.374338225 3.03896065.365107455 3.11535741.377678306 3.11535741.411807861 3.11535741.421099359 3.11420357.430087213 3.11177442.439135796L3.11177442.439135796zM5.32706478 4.77552632C5.32706478 4.86661944 5.27580971 4.90645749 5.17336032 4.89504049 4.85927126 4.86540486 4.46975709 4.86989879 4.00524291 4.908583 3.91178138 4.91781377 3.85439271 4.91544534 3.8325911 4.90196356 3.81097166 4.88817814 3.8002834 4.8507085 3.8002834 4.7890081 3.8002834 4.73447368 3.86222672 4.6884413 3.98629554 4.65072874 4.11060729 4.61325911 4.17248988 4.50103239 4.17248988 4.31435222L4.17248988 1.22289473C4.17248988 1.03834008 4.1457085.902854254 4.09232794.816255059 4.03870446.729716602 3.94475709.662550609 3.81048583.614878541 3.73979757.589736842 3.70445344.554392713 3.70445344.508846154 3.70445344.440526316 3.7557085.389271255 3.85815789.3551417 4.01307693.305040486 4.17370446.227732794 4.33997976.122854251 4.47661944.0408097166 4.56321863 0 4.59947368 0 4.68370446 0 4.72597166.0578744939 4.72597166.174109312 4.72597166.165121457 4.721417.278987854 4.71218623.515708502 4.7055668.741072873 4.70319838.963097166 4.7055668 1.18184211L4.71904858 4.23224696C4.71904858 4.37125506 4.75323887 4.47212551 4.8215587 4.53473684 4.88987854 4.59734818 5.00726721 4.63888664 5.17336032 4.6592915 5.27580971 4.67064778 5.32706478 4.70933198 5.32706478 4.77552632L5.32706478 4.77552632zM8.41663969 4.57408907C8.41663969 4.62200405 8.32955467 4.6941498 8.15544533 4.79089069 7.98109313 4.88769231 7.84159922 4.93609312 7.73696355 4.93609312 7.64799598 4.93609312 7.56953443 4.89291498 7.50121459 4.80631579 7.43289475 4.71977733 7.384919 4.67659919 7.35765182 4.67659919 7.33724695 4.67659919 7.22908904 4.7232996 7.03311738 4.81651822 6.83744941 4.90997976 6.64032387 4.95674089 6.44222672 4.95674089 6.25554656 4.95674089 6.09941297 4.90196356 5.97419027 4.79283401 5.83755061 4.67204453 5.76923077 4.50813765 5.76923077 4.30080971 5.76923077 3.90680162 6.2202024 3.62447368 7.12208502 3.45370446 7.27676115 3.42406883 7.35552633 3.36139676 7.35765182 3.26580971L7.3645749 3.04712551C7.37829961 2.67370446 7.21317814 2.48702429 6.86921051 2.48702429 6.77125506 2.48702429 6.67852225 2.57453441 6.5907085 2.7498583 6.50319838 2.9254251 6.37724695 3.01979757 6.21327937 3.033583 6.02659922 3.05161944 5.93313768 2.97309717 5.93313768 2.79777328 5.93313768 2.68840081 6.07214572 2.56105263 6.349919 2.41512146 6.64147775 2.26263158 6.92168016 2.18623482 7.19040486 2.18623482 7.65255059 2.18623482 7.88143723 2.40613361 7.87694332 2.84568826L7.86315791 4.25289473C7.86103236 4.40095142 7.92370447 4.47491903 8.05105266 4.47491903 8.07619436 4.47491903 8.12410934 4.46927126 8.19455467 4.45785425 8.26530363 4.44649798 8.30629553 4.44078947 8.31771258 4.44078947 8.38366395 4.44078947 8.41663969 4.48536437 8.41663969 4.57408907L8.41663969 4.57408907zM7.3645749 3.79530364C7.36694332 3.73834008 7.35364371 3.70062753 7.32516193 3.6825911 7.29668016 3.66437247 7.25186232 3.66078947 7.19040486 3.67220648 6.64147775 3.77016195 6.36704455 3.9490081 6.36704455 4.20856276 6.36704455 4.4704251 6.50933197 4.60135628 6.79402834 4.60135628 6.90789475 4.60135628 7.0253441 4.57979757 7.14582996 4.53661944 7.28720648 4.48633603 7.35765182 4.42609312 7.35765182 4.35540486L7.3645749 3.79530364zM10.9563158 4.18105263C10.9563158 4.42251012 10.8632794 4.61447368 10.6778138 4.75676113 10.4922874 4.89910931 10.2389271 4.9702834 9.91773281 4.9702834 9.70378541 4.9702834 9.48953443 4.94751012 9.27558703 4.90196356 9.09103236 4.86091093 8.98402834 4.8234413 8.95439273 4.78925101 8.93611336 4.75724696 8.92712549 4.601417 8.92712549 4.32121457 8.92712549 4.20048583 8.95439273 4.13787449 9.00917004 4.13338056 9.06376518 4.12645749 9.11046557 4.15615385 9.1491498 4.22210527 9.319919 4.52052632 9.5955668 4.66973684 9.9758502 4.66973684 10.2968016 4.66973684 10.4574291 4.55799595 10.4574291 4.33475709 10.4574291 4.23704453 10.4211134 4.15493927 10.3480567 4.08898785 10.2683198 4.01380567 10.1137045 3.92605263 9.88360324 3.82591093 9.55099189 3.67791498 9.32896764 3.54813765 9.21746965 3.43639676 9.09668016 3.31803644 9.03643723 3.15862348 9.03643723 2.95815789 9.03643723 2.71214575 9.13087043 2.52097166 9.319919 2.38433198 9.49524293 2.25218623 9.72983807 2.18623482 10.0235222 2.18623482 10.2080769 2.18623482 10.3765385 2.20093117 10.5292713 2.23062753 10.6932388 2.26026316 10.7786235 2.29657895 10.7854858 2.33993927 10.8035222 2.46734818 10.8412348 2.65190283 10.8981984 2.89342105 10.9050607 2.92281377 10.872996 2.94680162 10.8025506 2.96502024 10.7273684 2.98093117 10.6773279 2.96836032 10.6521863 2.92755061 10.4723684 2.63362348 10.2446356 2.48678137 9.96898787 2.48678137 9.65702432 2.48678137 9.50095143 2.58692307 9.50095143 2.78738866 9.50095143 2.89906883 9.54315791 2.98779352 9.62738865 3.05374494 9.70257088 3.1107085 9.87904857 3.19967612 10.1568826 3.32040486 10.4483805 3.44562753 10.6464778 3.55834008 10.7513563 3.65842105 10.887996 3.78819838 10.9563158 3.96255061 10.9563158 4.18105263L10.9563158 4.18105263zM14.9751012 4.77886639C14.9751012 4.85854251 14.9214778 4.90080971 14.8144737 4.90530364 14.6550607 4.90767206 14.4465182 4.91902834 14.1893927 4.9394332 14.0618016 4.9645749 13.9707085 4.9487247 13.9161134 4.89176113 13.5562348 4.50461538 13.2509514 4.09919029 13.0004453 3.67554656 12.9800405 3.63923077 12.9539271 3.62095142 12.9219231 3.62095142 12.8832388 3.62095142 12.8161336 3.6551417 12.7205466 3.72346154 12.6132996 3.78255061 12.559919 3.86696356 12.559919 3.97609312 12.559919 4.05364372 12.5620446 4.1651417 12.5667814 4.31107287 12.5713361 4.4567004 12.6075911 4.55228745 12.675911 4.59783401 12.7238259 4.62989879 12.834413 4.65479757 13.0073077 4.67307693 13.1143117 4.68680162 13.1679352 4.72663968 13.1679352 4.7925911 13.1679352 4.84506073 13.1593724 4.87755061 13.1423077 4.88987854 13.1252429 4.90244939 13.0801215 4.90530364 13.0073077 4.8984413 12.7795749 4.87803644 12.3947976 4.88939271 11.8527935 4.93257085 11.7161538 4.94398785 11.6421255 4.92686235 11.6307085 4.88131579 11.6262146 4.86546559 11.6238462 4.84269231 11.6238462 4.81299595 11.6238462 4.74255061 11.6933805 4.68892713 11.8323887 4.65267206 11.9576113 4.62060729 12.0202227 4.47376518 12.0202227 4.21190283L12.0202227 1.22623482C12.0202227 1.03955466 12.002004.909777328 11.9654453.836963561 11.9154049.743502023 11.8105263.670627529 11.6511134.618218625 11.5761741.593319838 11.5384615.557975709 11.5384615.51242915 11.5384615.446234818 11.592085.394979757 11.6990283.358724696 11.8698583.301761134 12.0325506.223238866 12.1874696.12291498 12.312753.0410526316 12.3903036 0 12.4196964 0 12.5132186 0 12.559919.0590890688 12.559919.177692307 12.559919.16159919 12.5587652.274493927 12.5563361.515769231 12.5542105.682044533 12.5530567.905283398 12.5530567 1.1854251L12.559919 3.32374494C12.559919 3.38301619 12.57583 3.41246964 12.6075911 3.41246964 12.6417814 3.41246964 12.6941903 3.38301619 12.7648785 3.32374494 12.9539271 3.17568826 13.1862146 2.98214575 13.4616195 2.74299595 13.5163968 2.68609312 13.5436639 2.64054656 13.5436639 2.60635628 13.5436639 2.54495951 13.451417 2.50153846 13.2671053 2.47663968 13.1873684 2.46734818 13.1496559 2.42301619 13.1541498 2.34327935 13.1610121 2.26360324 13.200911 2.22941296 13.2737247 2.24082996 13.4378745 2.26360324 13.6770243 2.27617409 13.9910527 2.27854251 14.2097976 2.28066802 14.4273279 2.28188259 14.6437045 2.28188259 14.7141498 2.28425101 14.7494939 2.32621457 14.7494939 2.40831984 14.7494939 2.48562753 14.6937449 2.52783401 14.582247 2.53475709 14.4066802 2.54137652 14.2415587 2.58121457 14.0869433 2.65427126 13.8705668 2.75204453 13.639251 2.92402834 13.3932996 3.17004049 13.3752632 3.18376518 13.3659717 3.20082996 13.3659717 3.22123482 13.3659717 3.25305668 13.4046559 3.32945344 13.4822672 3.45018219 13.7669029 3.88287449 14.0356883 4.20953441 14.2883198 4.43058704 14.4501012 4.56941296 14.6014372 4.63888664 14.7425709 4.63888664 14.8474494 4.63888664 14.9124291 4.64623482 14.9373279 4.66117409 14.9625304 4.67593117 14.9751012 4.7152834 14.9751012 4.77886639L14.9751012 4.77886639z" transform="translate(0 14.297)"/>
    </g>
  </g>
</svg>
