<svg xmlns="http://www.w3.org/2000/svg" width="102" height="102" viewBox="0 0 102 102">
  <g fill="none" fill-rule="evenodd" transform="translate(1 1)">
    <path fill="#FD3635" fill-rule="nonzero" d="M40.5544554 19.3267327C37.8613861 16.6336634 34.0594059 14.8910891 29.9405941 14.8910891 25.8217822 14.8910891 22.019802 16.5544554 19.3267327 19.3267327 16.6336634 22.019802 14.8910891 25.8217822 14.8910891 29.9405941 14.8910891 34.0594059 16.6336634 37.8613861 19.3267327 40.5544554 22.019802 43.2475248 25.8217822 44.990099 29.9405941 44.990099 34.0594059 44.990099 37.8613861 43.3267327 40.5544554 40.5544554 43.2475248 37.8613861 44.990099 34.0594059 44.990099 29.9405941 44.990099 25.8217822 43.3267327 22.019802 40.5544554 19.3267327zM37.7029703 37.7029703C35.7227723 39.6831683 32.950495 40.8712871 29.9405941 40.8712871 26.9306931 40.8712871 24.1584158 39.6831683 22.1782178 37.7029703 20.1980198 35.7227723 19.009901 32.950495 19.009901 29.9405941 19.009901 26.9306931 20.1980198 24.1584158 22.1782178 22.1782178 24.1584158 20.1980198 26.9306931 19.009901 29.9405941 19.009901 32.950495 19.009901 35.7227723 20.1980198 37.7029703 22.1782178 39.6831683 24.1584158 40.8712871 26.9306931 40.8712871 29.9405941 40.8712871 32.950495 39.6831683 35.7227723 37.7029703 37.7029703zM57.8217822 27.8811881L51.7227723 27.8811881C50.6138614 27.8811881 49.6633663 28.8316832 49.6633663 29.9405941 49.6633663 31.049505 50.6138614 32 51.7227723 32L57.8217822 32C58.9306931 32 59.8811881 31.049505 59.8811881 29.9405941 59.8811881 28.8316832 58.9306931 27.8811881 57.8217822 27.8811881zM29.9405941 49.6633663C28.8316832 49.6633663 27.8811881 50.6138614 27.8811881 51.7227723L27.8811881 57.8217822C27.8811881 58.9306931 28.8316832 59.8811881 29.9405941 59.8811881 31.049505 59.8811881 32 58.9306931 32 57.8217822L32 51.7227723C32 50.6138614 31.049505 49.6633663 29.9405941 49.6633663zM51.0891089 48.2376238L46.7326733 43.8811881C46.019802 43.0891089 44.6732673 43.0891089 43.8811881 43.8811881 43.0891089 44.6732673 43.0891089 45.9405941 43.8811881 46.7326733L48.2376238 51.0891089C49.029703 51.8811881 50.2970297 51.8811881 51.0891089 51.0891089 51.8811881 50.2970297 51.8811881 49.029703 51.0891089 48.2376238zM29.9405941 0C28.8316832 0 27.8811881.95049505 27.8811881 2.05940594L27.8811881 8.15841584C27.8811881 9.26732673 28.8316832 10.2178218 29.9405941 10.2178218 31.049505 10.2178218 32 9.26732673 32 8.15841584L32 2.05940594C32 .95049505 31.049505 0 29.9405941 0zM51.1683168 8.79207921C50.3762376 8 49.1089109 8 48.3168317 8.79207921L43.960396 13.1485149C43.1683168 13.9405941 43.1683168 15.2079208 43.960396 16 44.6732673 16.7920792 46.019802 16.7920792 46.8118812 16L51.1683168 11.6435644C51.960396 10.8514851 51.960396 9.58415842 51.1683168 8.79207921zM8.15841584 27.8811881L2.05940594 27.8811881C.95049505 27.8811881 0 28.8316832 0 29.9405941 0 31.049505.871287129 32 2.05940594 32L8.15841584 32C9.26732673 32 10.2178218 31.049505 10.2178218 29.9405941 10.2178218 28.8316832 9.26732673 27.8811881 8.15841584 27.8811881zM15.9207921 43.8811881C15.2079208 43.0891089 13.8613861 43.0891089 13.0693069 43.8811881L8.71287129 48.2376238C7.92079208 49.029703 7.92079208 50.2970297 8.71287129 51.0891089 9.5049505 51.8811881 10.7722772 51.8811881 11.5643564 51.0891089L15.9207921 46.7326733C16.7128713 45.9405941 16.7128713 44.6732673 15.9207921 43.8811881zM15.9207921 13.1485149L11.5643564 8.79207921C10.7722772 8 9.5049505 8 8.71287129 8.79207921 7.92079208 9.58415842 7.92079208 10.8514851 8.71287129 11.6435644L13.0693069 16C13.8613861 16.7920792 15.1287129 16.7920792 15.9207921 16 16.7128713 15.2079208 16.7128713 13.9405941 15.9207921 13.1485149z" transform="translate(20 20)"/>
    <rect width="100" height="100" stroke="#FD3635" rx="5"/>
  </g>
</svg>
