<svg xmlns="http://www.w3.org/2000/svg" width="102" height="102" viewBox="0 0 102 102">
  <g fill="none" fill-rule="evenodd">
    <rect width="100" height="100" stroke="#FF8CAF" rx="5" transform="translate(1 1)"/>
    <g stroke="#FF8CAF" stroke-linecap="round" stroke-linejoin="round" transform="translate(56 54)">
      <polygon points="12.333 17 17.667 17 15 10.333"/>
      <polygon points="15 0 0 5.314 2.295 25.007 15 32 27.704 25.007 30 5.314"/>
      <polygon points="25 23.667 20.989 23.667 19.09 19.754 11.072 19.754 9.173 23.667 5 23.667 15.074 3.667"/>
    </g>
    <path fill="#FF8CAF" fill-rule="nonzero" d="M16.5,11.5943922 C15.4492372,11.5943922 14.4782924,12.1480729 13.952911,13.0468682 C13.4275296,13.9456635 13.4275296,15.053025 13.952911,15.9518203 C14.4782924,16.8506156 15.4492372,17.4042963 16.5,17.4042963 C17.5507628,17.4042963 18.5217076,16.8506156 19.047089,15.9518203 C19.5724704,15.053025 19.5724704,13.9456635 19.047089,13.0468682 C18.5217076,12.1480729 17.5507628,11.5943922 16.5,11.5943922 Z M8.261,20.2780123 L7.612,20.1150417 C2.77475,18.9077007 0,16.8583446 0,14.4939119 C0,12.1294792 2.77475,10.0801231 7.612,8.87278211 L8.261,8.71116954 L8.443875,9.34675512 C8.93390033,11.0140978 9.56068317,12.6392239 10.318,14.2059971 L10.456875,14.49527 L10.318,14.7845429 C9.55942015,16.3507815 8.93259729,17.9760113 8.443875,19.6437848 L8.261,20.2780123 L8.261,20.2780123 Z M7.310875,10.3571732 C3.634125,11.377098 1.37775,12.9375421 1.37775,14.4939119 C1.37775,16.0489236 3.634125,17.6093677 7.310875,18.6306506 C7.76053367,17.2181453 8.30344747,15.8362702 8.936125,14.4939119 C8.30272323,13.1518586 7.75979069,11.7699358 7.310875,10.3571732 L7.310875,10.3571732 Z M24.739,20.2780123 L24.556125,19.6410687 C24.0665924,17.9738141 23.4393194,16.3490636 22.680625,14.7831848 L22.54175,14.4939119 L22.680625,14.204639 C23.4390317,12.6381705 24.0662944,11.0129925 24.556125,9.34539703 L24.739,8.70981145 L25.389375,8.87142402 C30.22525,10.078765 33,12.1281211 33,14.4939119 C33,16.8597027 30.22525,18.9077007 25.389375,20.1150417 L24.739,20.2780123 L24.739,20.2780123 Z M24.063875,14.4939119 C24.723875,15.9049662 25.26975,17.2915749 25.689125,18.6306506 C29.36725,17.6093677 31.62225,16.0489236 31.62225,14.4939119 C31.62225,12.9375421 29.365875,11.3784561 25.689125,10.3571732 C25.2400733,11.7698888 24.6971442,13.1518028 24.063875,14.4939119 Z M7.30125,10.3503828 L7.118375,9.71615529 C5.7585,4.98185753 6.171,1.58935156 8.25,0.40509808 C10.289125,-0.757425983 13.563,0.615601853 16.993625,4.09366742 L17.461125,4.56764043 L16.993625,5.04161344 C15.7746275,6.29323713 14.6608624,7.64084176 13.663375,9.07106308 L13.47775,9.33317423 L13.154625,9.36033601 C11.3999984,9.49695653 9.65949284,9.77401081 7.95025,10.1887702 L7.30125,10.3503828 Z M9.90825,1.34625366 C9.53975,1.34625366 9.213875,1.42502281 8.938875,1.58120303 C7.572125,2.35938795 7.330125,5.06470095 8.272,8.7152438 C9.73725,8.39328392 11.2221896,8.16600126 12.717375,8.03484128 C13.5800834,6.82326693 14.5226221,5.66911122 15.538875,4.57986323 C13.393875,2.51692625 11.363,1.34625366 9.90825,1.34625366 L9.90825,1.34625366 Z M23.093125,28.999659 C23.09175,28.999659 23.09175,28.999659 23.093125,28.999659 C21.13375,28.999659 18.6175,27.5424296 16.006375,24.8941564 L15.538875,24.4201834 L16.006375,23.9462103 C17.2250568,22.6941893 18.3383692,21.3461217 19.33525,19.9154026 L19.520875,19.6532915 L19.842625,19.6261297 C21.598157,19.4902618 23.3396008,19.2136587 25.04975,18.7990536 L25.69875,18.637441 L25.883,19.2730266 C27.240125,24.0046082 26.829,27.3984722 24.75,28.5813676 C24.2450086,28.8633863 23.6731913,29.0077462 23.093125,28.999659 L23.093125,28.999659 Z M17.461125,24.4079606 C19.606125,26.4708975 21.637,27.6415701 23.09175,27.6415701 L23.093125,27.6415701 C23.46025,27.6415701 23.7875,27.562801 24.061125,27.4066208 C25.427875,26.6284358 25.67125,23.9217647 24.728,20.2712219 C23.2623717,20.593628 21.7769451,20.8209149 20.28125,20.9516244 C19.4195873,22.1640359 18.4774791,23.3186807 17.461125,24.4079606 L17.461125,24.4079606 Z M25.69875,10.3503828 L25.04975,10.1887702 C23.3398231,9.7728139 21.5983045,9.49574478 19.842625,9.36033601 L19.520875,9.33317423 L19.33525,9.07106308 C18.3388779,7.64039132 17.2255303,6.29273533 16.006375,5.04161344 L15.538875,4.56764043 L16.006375,4.09366742 C19.435625,0.616959941 22.708125,-0.756067894 24.75,0.40509808 C26.829,1.58935156 27.2415,4.98185753 25.883,9.7147972 L25.69875,10.3503828 Z M20.28125,8.03484128 C21.8515,8.17608253 23.343375,8.40559954 24.728,8.7152438 C25.67125,5.06470095 25.427875,2.35938795 24.061125,1.58120303 C22.702625,0.805734293 20.14925,1.99406204 17.461125,4.57986323 C18.4768997,5.66915841 19.4189779,6.82331275 20.28125,8.03484128 Z M9.90825,28.999659 C9.32771892,29.0079877 8.7553956,28.8636199 8.25,28.5813676 C6.171,27.3984722 5.7585,24.0059663 7.118375,19.2730266 L7.299875,18.637441 L7.948875,18.7990536 C9.537,19.1942574 11.28875,19.4726656 13.15325,19.6261297 L13.476375,19.6532915 L13.660625,19.9154026 C14.658266,21.3459343 15.7720188,22.6939783 16.990875,23.9462103 L17.458375,24.4201834 L16.990875,24.8941564 C14.381125,27.5424296 11.864875,28.999659 9.90825,28.999659 L9.90825,28.999659 Z M8.272,20.2712219 C7.32875,23.9217647 7.572125,26.6284358 8.938875,27.4066208 C10.296,28.1712248 12.848,26.9924037 15.538875,24.4079606 C14.5230268,23.3178901 13.5805118,22.1633097 12.717375,20.9516244 C11.2221204,20.8210261 9.73714383,20.5937378 8.272,20.2712219 L8.272,20.2712219 Z M16.5,21.1241017 C15.368375,21.1241017 14.205125,21.0752105 13.0405,20.9801443 L12.717375,20.9529825 L12.53175,20.6908714 C11.8730004,19.7559625 11.2537202,18.7945177 10.6755,17.8090068 C10.0989955,16.8227064 9.56412,15.813233 9.07225,14.7831848 L8.93475,14.4939119 L9.07225,14.204639 C9.5640437,13.1745533 10.0989209,12.1650768 10.6755,11.178817 C11.24475,10.2064254 11.870375,9.23674992 12.53175,8.29695243 L12.717375,8.03484128 L13.0405,8.00767951 C15.3431602,7.81483365 17.6582148,7.81483365 19.960875,8.00767951 L20.282625,8.03484128 L20.466875,8.29695243 C21.7857308,10.1671263 22.9434154,12.1432848 23.92775,14.204639 L24.066625,14.4939119 L23.92775,14.7831848 C22.9457741,16.8457588 21.787977,18.8221094 20.466875,20.6908714 L20.282625,20.9529825 L19.960875,20.9801443 C18.79625,21.0752105 17.631625,21.1241017 16.5,21.1241017 L16.5,21.1241017 Z M13.479125,19.6519334 C15.514125,19.8026812 17.485875,19.8026812 19.52225,19.6519334 C20.65914,18.0103466 21.6685264,16.2860754 22.54175,14.4939119 C21.6700747,12.7006667 20.660142,10.9762476 19.520875,9.33589041 C17.5098501,9.18514011 15.4901499,9.18514011 13.479125,9.33589041 C12.3393604,10.9759375 11.329405,12.7003953 10.45825,14.4939119 C11.332417,16.2858558 12.3422423,18.0100915 13.479125,19.6519334 L13.479125,19.6519334 Z" transform="translate(13 56)"/>
    <g fill-rule="nonzero" transform="translate(34 19)">
      <polygon fill="#41B883" points="24 0 30 0 15 25.875 0 0 5.925 0 11.475 0 15 6 18.45 0"/>
      <polygon fill="#FF8CAF" points="0 0 15 25.875 30 0 24 0 15 15.525 5.925 0"/>
      <polygon fill="#FE5F8F" points="5.925 0 15 15.6 24 0 18.45 0 15 6 11.475 0"/>
    </g>
  </g>
</svg>
