<svg xmlns="http://www.w3.org/2000/svg" width="102" height="102" viewBox="0 0 102 102">
  <g fill="none" fill-rule="evenodd" transform="translate(1 1)">
    <path fill="#F0AD4E" fill-rule="nonzero" d="M8.7890625,42.24 L24.7265625,42.24 L24.7265625,47.52 C24.7265625,50.4313333 27.0922852,52.8 30,52.8 L54.7265625,52.8 C57.6342773,52.8 60,50.4313333 60,47.52 L60,15.84 C60,12.9286667 57.6342773,10.56 54.7265625,10.56 L52.96875,10.56 L52.96875,5.28 C52.96875,2.36866667 50.6030273,0 47.6953125,0 L8.7890625,0 C5.88134766,0 3.515625,2.36866667 3.515625,5.28 L3.515625,31.68 L1.7578125,31.68 C0.786895781,31.68 0,32.467875 0,33.44 C0,38.292375 3.94271848,42.24 8.7890625,42.24 Z M8.7890625,38.72 C6.4974975,38.72 4.54238895,37.2487501 3.81683344,35.2 L24.7265625,35.2 L24.7265625,38.72 L8.7890625,38.72 Z M54.7265625,49.28 L30,49.28 C29.0309143,49.28 28.2421875,48.4902916 28.2421875,47.52 L28.2421875,45.76 L56.484375,45.76 L56.484375,47.52 C56.484375,48.4902916 55.6956482,49.28 54.7265625,49.28 Z M56.484375,15.84 L56.484375,42.24 L28.2421875,42.24 L28.2421875,15.84 C28.2421875,14.8697084 29.0309143,14.08 30,14.08 L54.7265625,14.08 C55.6956482,14.08 56.484375,14.8697084 56.484375,15.84 Z M7.03125,5.28 C7.03125,4.30970836 7.81997684,3.52 8.7890625,3.52 L47.6953125,3.52 C48.6643982,3.52 49.453125,4.30970836 49.453125,5.28 L49.453125,10.56 L30,10.56 C27.0922852,10.56 24.7265625,12.9286667 24.7265625,15.84 L24.7265625,31.68 L7.03125,31.68 L7.03125,5.28 Z" transform="translate(20 24)"/>
    <rect width="100" height="100" stroke="#F0AD4E" rx="5"/>
  </g>
</svg>
