<svg xmlns="http://www.w3.org/2000/svg" width="102" height="102" viewBox="0 0 102 102">
  <g fill="none" fill-rule="evenodd">
    <rect width="100" height="100" stroke="#1D273B" rx="5" transform="translate(1 1)"/>
    <g fill="#1D273B" fill-rule="nonzero" transform="translate(27 27)">
      <path d="M20.5429077 43.7389374L20.3960419 44.4564819 20.5375672 43.7381744C20.1408387 43.6599731 19.7555542 43.9182281 19.6773529 44.3149566 19.5991516 44.7120666 19.8574066 45.0969696 20.2545166 45.1751709 20.255661 45.1755523 20.2667236 45.1774598 20.2678681 45.1778412 20.3144073 45.186615 20.3605652 45.1911926 20.4063416 45.1911926 20.7508087 45.1911926 21.0578918 44.947052 21.124649 44.5960998 21.200943 44.1986084 20.9403992 43.8148498 20.5429077 43.7389374zM26.1428833 43.9743042L26.215744 44.7029113 26.1405945 43.9746856C25.7381439 44.0158844 25.4455566 44.3756104 25.4871368 44.7780609 25.5256652 45.154953 25.843811 45.4357147 26.2145996 45.4357147 26.2397766 45.4357147 26.2653351 45.4341889 26.2905121 45.4319L26.31073 45.4296112C26.7112732 45.3826904 26.9954682 45.0214386 26.9508361 44.6208954 26.9058228 44.2207336 26.5434266 43.9323426 26.1428833 43.9743042L26.1428833 43.9743042zM23.3390809 44.0666199C23.3390809 44.0666199 23.3287812 44.0662384 23.3283996 44.0662384 22.9248047 44.0479278 22.5875854 44.361496 22.5692749 44.7654725 22.5513458 45.1694488 22.8687286 45.5116271 23.2727051 45.5299377 23.2841492 45.5307007 23.2952118 45.5307007 23.3066559 45.5307007 23.695755 45.5307007 24.0200043 45.2243805 24.0375519 44.8314667 24.0558624 44.4274902 23.7434387 44.0849305 23.3390809 44.0666199L23.3390809 44.0666199zM17.8375244 42.9946899L17.8283691 42.9912567C17.4476623 42.8546905 17.0326232 43.0538178 16.8960571 43.4345245 16.7591095 43.8152313 16.9612885 44.2363739 17.3419952 44.3733215 17.4240112 44.4026947 17.5075531 44.4164276 17.5895691 44.4164276 17.8897857 44.4164276 18.1716919 44.2306519 18.2788849 43.9315796 18.4158325 43.5508729 18.2182312 43.1312561 17.8375244 42.9946899L17.8375244 42.9946899zM28.9070129 43.4616089L29.0874481 44.171524 28.9047241 43.4623719C28.5129547 43.5630799 28.2772064 43.9624786 28.3779145 44.354248 28.4629822 44.6846008 28.7605285 44.9043273 29.0866852 44.9043273 29.1473389 44.9043273 29.2087555 44.896698 29.2701721 44.8806763 29.2732238 44.8799133 29.2861938 44.8764801 29.2896271 44.8757172 29.6783447 44.7696686 29.9057007 44.3702697 29.8019409 43.9807892 29.6981812 43.59169 29.2972564 43.3601379 28.9070129 43.4616089L28.9070129 43.4616089zM31.5547943 42.5380707L31.8450928 43.2102203 31.5525055 42.5388336C31.1817169 42.7005768 31.0119629 43.132019 31.1733246 43.5028076 31.2934875 43.7786103 31.5628052 43.9430236 31.8454742 43.9430236 31.942749 43.9430236 32.0423126 43.9231873 32.1372986 43.8819885 32.1403504 43.8804627 32.1521759 43.8755035 32.1552276 43.8739776 32.522583 43.7080383 32.6847076 43.2777404 32.5206757 42.9096222 32.3566437 42.5411225 31.924057 42.3759461 31.5547943 42.5380707L31.5547943 42.5380707zM15.0398254 9.15031436C15.1573182 9.15031436 15.2767182 9.12208555 15.3869629 9.06333926 15.7440186 8.87298584 15.8786773 8.42933652 15.688324 8.07228086 15.4979706 7.71560664 15.0547027 7.58018496 14.6976471 7.77091982L14.6888732 7.77549746C14.3321991 7.96585078 14.201355 8.40721133 14.3917084 8.76426699 14.522934 9.01069639 14.7777558 9.15031436 15.0398254 9.15031436zM6.56776426 17.3309326C6.6764832 17.3877716 6.79283145 17.414856 6.90765381 17.414856 7.17124941 17.414856 7.42607119 17.2721863 7.55691523 17.0223236L7.56988525 16.9967651C7.74841309 16.633606 7.59887695 16.1945343 7.23571777 16.0163879 6.87522891 15.838623 6.43959043 15.9851074 6.25877383 16.3433075 6.07185361 16.7011261 6.2099457 17.1432495 6.56776426 17.3309326zM5.53665156 20.0862885C5.61447148 20.1126099 5.69343564 20.1251983 5.77163691 20.1251983 6.0768127 20.1251983 6.36177061 19.9325562 6.46514893 19.6273804L6.47468564 19.5983887C6.5937042 19.2119599 6.37664795 18.8018799 5.9898377 18.6832428 5.60646055 18.5649872 5.19943242 18.7778473 5.07698057 19.159317 4.94842529 19.5419312 5.1540375 19.9569702 5.53665156 20.0862885zM8.01277158 14.7686005C8.14285273 14.863205 8.2935333 14.9089813 8.44306943 14.9089813 8.66928105 14.9089813 8.89282227 14.8040771 9.03587344 14.6072388L9.04541016 14.5942688C9.28039551 14.2654419 9.20372012 13.8092041 8.87565615 13.5742188 8.54721074 13.338852 8.08944707 13.4143829 7.85369873 13.7424469L8.44383242 14.1765595 7.85140996 13.7454986C7.61337285 14.0727997 7.68585205 14.5309448 8.01277158 14.7686005zM12.5534058 10.7322693C12.7071381 10.7322693 12.8620147 10.6838227 12.9943848 10.5831146 13.3209229 10.3443146 13.3914947 9.88616943 13.1526947 9.55963135 12.9135132 9.23309326 12.4553681 9.16252139 12.1292114 9.40132139L12.1109009 9.41467285C11.7889404 9.65919492 11.7248535 10.1196289 11.9693756 10.4419708 12.1135712 10.6319428 12.3321533 10.7322693 12.5534058 10.7322693zM4.8828125 31.1939239C4.97970586 31.5086365 5.26885986 31.710434 5.58166504 31.710434 5.6529999 31.710434 5.72586055 31.6997528 5.79757695 31.6776275 6.18209844 31.5597534 6.39915469 31.1523438 6.28395078 30.7670594 6.17370605 30.3825379 5.77507021 30.1567078 5.38711543 30.2623749 4.99687197 30.3688049 4.7668457 30.7716369 4.87327578 31.1618805 4.87556455 31.1695099 4.88052363 31.1862945 4.8828125 31.1939239zM10.3408813 12.6625061C10.5312348 12.6625061 10.7215881 12.5888824 10.8654022 12.442398 11.151123 12.1562958 11.151123 11.6924286 10.8654022 11.4067078 10.5792999 11.1206055 10.1154327 11.1206055 9.82933047 11.4067078L9.81712344 11.4189148C9.53407285 11.7076874 9.53979492 12.1707916 9.82856748 12.4538422 9.97085566 12.5934601 10.1558686 12.6625061 10.3408813 12.6625061zM5.69229121 28.0006408C5.64079287 27.602768 5.27725215 27.3204804 4.87899785 27.3677826 4.4776916 27.4158478 4.19082637 27.7801514 4.23851016 28.181839L4.24270625 28.2112121C4.29611211 28.5751343 4.60853574 28.8360596 4.96597285 28.8360596 5.00106816 28.8360596 5.03692627 28.8333893 5.07316592 28.8280487 5.47180176 28.7700653 5.74836729 28.3992768 5.69229121 28.0006408zM4.77218633 25.9029389C4.77981563 25.9029389 4.78706357 25.9033203 4.79431152 25.9033203 5.18875117 25.9033203 5.51452637 25.5893707 5.52597051 25.1922607L5.5267334 25.1609803C5.5267334 24.7562408 5.19866943 24.4285584 4.79431152 24.4285584 4.39262393 24.4285584 4.06684873 24.7512817 4.06188965 25.1514435 4.0512085 25.5550385 4.36897275 25.8911133 4.77218633 25.9029389L4.77218633 25.9029389zM4.93278506 22.965622C4.9766541 22.9732514 5.01976016 22.977066 5.06286621 22.977066 5.4107666 22.977066 5.71937559 22.7279663 5.78308105 22.373581 5.78498838 22.3628998 5.78651426 22.3522187 5.78804014 22.3415375 5.84716797 21.9413758 5.57060244 21.5690613 5.17005918 21.5103149 4.7744751 21.4515686 4.40406797 21.7235565 4.3403625 22.1179962 4.27093506 22.5154877 4.535675 22.8942871 4.93278506 22.965622zM39.4824981 14.9997711C39.6244049 15.2057647 39.8525238 15.3160096 40.0852203 15.3160096 40.2282715 15.3160096 40.37323 15.2740479 40.4998779 15.1866913 40.832901 14.9578095 40.9172059 14.5015717 40.688324 14.1681671L40.0794982 14.5755768 40.6860352 14.1647339C40.4586792 13.8298035 40.0032043 13.7424469 39.6686554 13.9694214 39.333725 14.1963959 39.2463684 14.6518707 39.4733429 14.9868012L39.4824981 14.9997711zM43.2228088 22.3701477C42.8207397 22.4151611 42.5315857 22.7779389 42.5769806 23.1800079L42.5807953 23.2116699C42.6330566 23.5767364 42.9466248 23.840332 43.3052063 23.840332 43.3395386 23.840332 43.3746338 23.8380432 43.409729 23.8330841 43.806839 23.7762451 44.083786 23.4104156 44.0322876 23.0136871 43.9861298 22.6127625 43.6222076 22.3251343 43.2228088 22.3701477zM41.9868469 20.3033447L41.9898986 20.3128814C42.0837402 20.6321717 42.3755646 20.8389282 42.6921845 20.8389282 42.7604676 20.8389282 42.829895 20.8293915 42.898941 20.8087921 43.2872772 20.6947326 43.5092926 20.2877045 43.3952332 19.8993683L43.3921814 19.8898315C43.278122 19.5014953 42.8710938 19.27948 42.4827576 19.3939209 42.0948028 19.5079804 41.8727875 19.9150086 41.9868469 20.3033447L41.9868469 20.3033447zM40.952301 17.5647735C41.0800934 17.8245545 41.3414002 17.9759979 41.6130066 17.9759979 41.7209625 17.9759979 41.8308258 17.9519653 41.9342041 17.9008484 42.2969818 17.7223205 42.4476623 17.2859191 42.268753 16.92276L41.6049957 17.2321319 42.2679901 16.9212342C42.0963287 16.5550232 41.6603088 16.3974762 41.2940979 16.5691376 40.9278869 16.7407989 40.7699585 17.1768188 40.9416199 17.5430298L40.952301 17.5647735zM37.6377105 12.7124786C37.7811432 12.858963 37.9707336 12.9322052 38.1607056 12.9322052 38.3457184 12.9322052 38.5307313 12.8627777 38.6734009 12.7227783 38.9602661 12.4420166 38.9667511 11.9831085 38.6901855 11.6939545 38.4159088 11.3983154 37.9535675 11.3803863 37.6567841 11.6542816 37.3596191 11.9285584 37.3413086 12.392044 37.6155854 12.689209L37.6377105 12.7124786zM43.4608459 25.4283905C43.0583954 25.4180908 42.7215576 25.7335663 42.7074433 26.1360168 42.6891327 26.5369415 42.9969787 26.8783569 43.398285 26.9008637 43.4123993 26.9016266 43.4257508 26.902008 43.4398651 26.902008 43.8255311 26.902008 44.1486358 26.6002655 44.1703797 26.210022L44.171524 26.1798858C44.1829682 25.7759094 43.8648224 25.440216 43.4608459 25.4283905L43.4608459 25.4283905zM32.9540253 9.11598203L32.9715729 9.12551875C33.0806732 9.18350215 33.1977844 9.21096797 33.3129883 9.21096797 33.5735321 9.21096797 33.8256836 9.07058711 33.9580536 8.82453916 34.1487885 8.46939082 34.0145111 8.02536016 33.6605072 7.83309941L33.3061219 8.47396855 33.6582184 7.83157344C33.3034516 7.63702393 32.8582764 7.76710508 32.6637268 8.12187197 32.4695587 8.47625732 32.5992584 8.92181396 32.9540253 9.11598203L32.9540253 9.11598203zM35.4312896 10.7223511L35.4427338 10.7311249C35.5751037 10.8314514 35.7303619 10.879898 35.8848572 10.879898 36.1061096 10.879898 36.3246918 10.779953 36.4688873 10.5899811 36.7134094 10.2676392 36.6500854 9.80834961 36.328125 9.56382754L36.3231659 9.56039434C36.0023498 9.31396484 35.5426788 9.37423711 35.2962494 9.69505313 35.0498199 10.0158691 35.1104736 10.4759217 35.4312896 10.7223511L35.4312896 10.7223511z"/>
      <path d="M49.5479584,36.5165711 L46.1097717,33.0722809 C45.8171845,32.7793121 45.4284668,32.6179504 45.0145722,32.6179504 C44.601059,32.6179504 44.2119599,32.7793121 43.919754,33.0722809 L43.8400269,33.152008 L43.6141968,32.9261779 C43.3353424,32.6465606 43.1194306,32.321167 42.9729462,31.9667816 C42.9599762,31.9198608 42.9428101,31.8740845 42.9206848,31.8309784 C42.8085327,31.5158844 42.7501679,31.1805725 42.7501679,30.8361054 L42.7501679,29.8618316 C42.816925,29.8969269 42.8897857,29.9224854 42.9679871,29.9358368 C43.0099487,29.9430848 43.0515289,29.946518 43.0927276,29.946518 C43.4402466,29.946518 43.7477111,29.6985626 43.8121796,29.3460846 C43.8903809,28.950119 43.6336518,28.565216 43.2373047,28.4858703 C43.062973,28.4511566 42.8905487,28.4812928 42.7455902,28.5598755 C42.7005768,27.5192261 42.2752381,26.5472412 41.5351867,25.8056641 L38.1996154,22.4643707 C37.4511719,21.7147827 36.4559174,21.3020324 35.3973389,21.3020324 C34.5779419,21.3020324 33.7974549,21.5503692 33.1390381,22.0100402 L32.7850342,21.654129 L32.7850342,13.2770538 C32.7850342,12.2673035 32.4184418,11.2930298 31.7531586,10.5342865 C31.2797547,9.99488828 31.0192108,9.30213926 31.0192108,8.58345029 L31.0192108,7.96966553 L31.0695648,7.96966553 C31.923294,7.96966553 32.6179504,7.27500918 32.6179504,6.42089844 L32.6179504,1.54876709 C32.6179504,0.694656348 31.923294,5.55111512e-15 31.0695648,5.55111512e-15 L17.3881531,5.55111512e-15 C16.5344238,5.55111512e-15 15.8397675,0.694656348 15.8397675,1.54876709 L15.8397675,6.42089844 C15.8397675,7.27500918 16.5344238,7.96966553 17.3881531,7.96966553 L17.5010682,7.96966553 L17.5010682,8.29086309 C17.5010682,9.08050537 17.193985,9.82284551 16.6366577,10.3809356 L15.1599884,11.8602753 C14.3764496,12.6453399 13.9450073,13.6886597 13.9450073,14.7987365 L13.9450073,19.5240021 C13.9450073,20.1660156 14.0991211,20.772171 14.3703461,21.3092804 C13.3991241,21.3653564 12.4938965,21.7700958 11.8003846,22.4643707 L8.46481328,25.8056641 C7.68127441,26.5907287 7.24983213,27.6344299 7.24983213,28.7441254 L7.24983213,30.8361054 C7.24983213,31.6257477 6.94313047,32.3680878 6.38580322,32.9261779 L6.16264346,33.1497192 C6.16149902,33.1504822 6.16073613,33.1512451 6.15997314,33.152008 L6.08062744,33.0722809 C5.78804014,32.7793121 5.39932246,32.6179504 4.98542783,32.6179504 C4.57191465,32.6179504 4.18281553,32.7793121 3.89060977,33.0722809 L0.452041602,36.5165711 C-0.150680566,37.1204376 -0.150680566,38.1031036 0.452041602,38.7069702 L1.62963867,39.8860932 C1.91535947,40.172577 2.37922666,40.1729584 2.665329,39.8872375 C2.95143125,39.6011353 2.95219424,39.1376495 2.66609189,38.8511658 L1.48887637,37.6716613 C1.45568848,37.6384735 1.45568848,37.5846863 1.48887637,37.5514984 L4.92744443,34.1072082 C4.95948789,34.0751648 5.01174922,34.0747833 5.04379277,34.1072082 L5.64155576,34.7061157 L5.6419373,34.7061157 L13.804245,42.8825379 L14.7186279,43.7988281 C14.7518158,43.832016 14.7518158,43.8858032 14.7186279,43.9189911 L11.2804413,47.3632813 C11.2480164,47.3957062 11.195755,47.3957062 11.1637115,47.3632813 L4.73976133,40.9282685 C4.45404053,40.6417847 3.99017334,40.6414032 3.70407109,40.927124 C3.4175873,41.2132264 3.41720586,41.676712 3.70292666,41.9631958 L10.1272583,48.3982086 C10.4194641,48.6911773 10.8085633,48.8525391 11.2224579,48.8525391 C11.6359711,48.8525391 12.0246887,48.6911773 12.317276,48.3982086 L15.7554627,44.9539185 C16.3581848,44.3504334 16.3581848,43.3677674 15.7554627,42.7639008 L15.7180786,42.7265167 L16.1518097,42.2920227 C16.6584015,41.7842865 17.3313141,41.4791107 18.0465698,41.4329529 C19.0532685,41.3677216 20.0004578,40.9381866 20.7134247,40.2236938 L23.871994,37.058258 C24.7829438,36.8190766 25.4920959,36.077118 25.6847382,35.1478576 C26.0093689,35.3023529 26.3721466,35.389328 26.7551422,35.389328 C28.1326294,35.389328 29.2533875,34.2674256 29.2533875,32.8880311 L29.2533875,31.1489105 C29.5684814,31.2927246 29.9182892,31.3735962 30.286789,31.3735962 C31.6642762,31.3735962 32.7846527,30.2516938 32.7846527,28.8722992 L32.7846527,23.7308502 L35.0376129,25.994873 C35.1806641,26.1386871 35.3687286,26.2104034 35.5567932,26.2104034 C35.7437134,26.2104034 35.9306336,26.1394501 36.0736847,25.9971619 C36.3601685,25.7118225 36.3613129,25.2483368 36.0759735,24.9614716 L34.1976166,23.0739594 C34.5611572,22.8736877 34.9708557,22.7668762 35.3973389,22.7668762 C36.0641479,22.7668762 36.6912842,23.0270386 37.1627808,23.4996796 L40.4983521,26.8405914 C41.0057068,27.3490906 41.2853241,28.0250549 41.2853241,28.7441254 L41.2853241,30.8361054 C41.2853241,32.0167541 41.7442322,33.1264496 42.5773621,33.9611054 L42.804718,34.1888428 L41.7423248,35.2531434 L35.3168487,41.689682 L34.9586486,41.3307189 C34.954834,41.3272857 34.9514008,41.3234711 34.947586,41.3200379 L34.8846436,41.2567139 C34.1262817,40.4972076 33.1188202,40.0405884 32.0484161,39.9711609 C31.3972473,39.9288178 30.7846069,39.6511078 30.3211212,39.1872406 L27.9144287,36.7935181 C27.6275635,36.5081787 27.1636963,36.5093231 26.8783569,36.7961884 C26.593399,37.0830536 26.5945435,37.5469208 26.8814087,37.8318787 L29.2865753,40.2236938 C29.9995422,40.9381866 30.9467315,41.3677216 31.9538116,41.4329529 C32.6686859,41.4791107 33.3415985,41.7842865 33.8481903,42.2916412 L33.883667,42.327118 C33.9027404,42.3488617 33.9229584,42.3690796 33.9443207,42.3881531 L34.2819214,42.7261353 L34.2445373,42.7639008 C33.6418152,43.3677674 33.6418152,44.3500519 34.2445373,44.9539185 L37.682724,48.3982086 C37.9753113,48.6911773 38.3640289,48.8525391 38.7779236,48.8525391 C39.1914367,48.8525391 39.5805359,48.6911773 39.8731231,48.3982086 L49.5479584,38.7065888 C50.1506806,38.1027222 50.1506806,37.1204376 49.5479584,36.5165711 L49.5479584,36.5165711 Z M43.2411193,29.2350753 L43.2273865,29.2327316 L43.0938721,29.2049972 L43.2411193,29.2350753 Z M19.6765899,39.1887665 C19.2153931,39.6511078 18.6027527,39.9288178 17.9519653,39.9711609 C16.8811798,40.0405884 15.8737183,40.4972076 15.1153564,41.2567139 L14.6831513,41.689682 L14.2940521,41.2998199 C14.289093,41.2948608 14.2841339,41.2895203 14.2791748,41.2849426 L7.19528203,34.1888428 L7.42263789,33.9611054 C8.25576777,33.1264496 8.71467588,32.0167541 8.71467588,30.8361054 L8.71467588,28.7441254 C8.71467588,28.0250549 8.99391172,27.3490906 9.50164795,26.8405914 L12.8372192,23.4996796 C13.3087158,23.0270386 13.9358521,22.7668762 14.6026611,22.7668762 C15.0302887,22.7668762 15.4415131,22.8744507 15.8061981,23.0762481 L13.9247895,24.9607086 C13.6390686,25.2468109 13.6394501,25.7106781 13.9255523,25.9963989 C14.0686035,26.1390686 14.2559052,26.2104034 14.4432068,26.2104034 C14.6308898,26.2104034 14.818573,26.1386871 14.9616241,25.9956359 L17.2088623,23.7442017 L17.2088623,32.8880311 C17.2088623,34.2674256 18.3296203,35.389328 19.7071075,35.389328 C20.0954438,35.389328 20.4631806,35.3000641 20.7912445,35.1413727 C20.9400177,35.8673096 21.4038849,36.479187 22.032547,36.8278504 L19.6765899,39.1887665 Z M31.3201904,28.8726807 C31.3201904,29.4441223 30.8563232,29.9091339 30.286789,29.9091339 C29.7168731,29.9091339 29.2533875,29.4441223 29.2533875,28.8726807 L29.2533875,20.7027436 C29.2533875,20.2983856 28.925705,19.9703217 28.5209656,19.9703217 C28.1162262,19.9703217 27.7885438,20.2983856 27.7885438,20.7027436 L27.7885438,32.8884125 C27.7885438,33.4598541 27.325058,33.9244843 26.7551422,33.9244843 C26.2435913,33.9244843 25.8190155,33.549881 25.7369995,33.0596924 L25.7369995,20.6943512 C25.7369995,20.2896118 25.409317,19.9619293 25.0045776,19.9619293 C24.8744965,19.9619293 24.7520447,19.9962616 24.6459961,20.0557709 C24.4144439,20.1789855 24.256897,20.4223633 24.256897,20.7027436 L24.256897,32.8880311 C24.256897,32.9811096 24.2622375,33.0722809 24.2721558,33.1626893 L24.2721558,34.6385956 C24.2721558,35.2100372 23.80867,35.6750488 23.2387543,35.6750488 C22.6692199,35.6750488 22.2057343,35.2100372 22.2057343,34.6385956 L22.2057343,20.6855773 C22.2057343,20.2812195 21.8776703,19.9531555 21.4733124,19.9531555 C21.068573,19.9531555 20.740509,20.2812195 20.740509,20.6855773 L20.740509,32.8880311 C20.740509,33.4594727 20.2770233,33.9244843 19.7074891,33.9244843 C19.1375732,33.9244843 18.6740875,33.4594727 18.6740875,32.8880311 L18.6740875,19.2638397 C18.6740875,18.8591004 18.3460235,18.5310363 17.9416656,18.5310363 C17.5369263,18.5310363 17.2092438,18.8591004 17.2092438,19.2638397 L17.2092438,21.7838287 C17.1478271,21.8036651 17.0883179,21.8315125 17.0330048,21.8681336 C16.0858154,21.5122223 15.4098511,20.595932 15.4098511,19.5240021 L15.4098511,14.7987365 C15.4098511,14.0796661 15.6894684,13.4037018 16.1968231,12.8952026 L17.6734924,11.4158631 C18.5070038,10.5812072 18.9659119,9.47151182 18.9659119,8.29086309 L18.9659119,7.96966553 L20.438385,7.96966553 C20.8431244,7.96966553 21.1708068,7.64160156 21.1708068,7.23724365 C21.1708068,6.8325043 20.8431244,6.50482178 20.438385,6.50482178 L17.3881531,6.50482178 C17.3419952,6.50482178 17.3046112,6.46705625 17.3046112,6.42089844 L17.3046112,1.54876709 C17.3046112,1.50260928 17.3419952,1.46484375 17.3881531,1.46484375 L31.0691834,1.46484375 C31.1157227,1.46484375 31.1531066,1.50260928 31.1531066,1.54876709 L31.1531066,6.42089844 C31.1531066,6.4674377 31.1157227,6.50482178 31.0691834,6.50482178 L23.8769531,6.50482178 C23.4725952,6.50482178 23.1445313,6.8325043 23.1445313,7.23724365 C23.1445313,7.64160156 23.4725952,7.96966553 23.8769531,7.96966553 L29.5543671,7.96966553 L29.5543671,8.58345029 C29.5543671,9.65766904 29.9438477,10.6933594 30.651474,11.5005493 C31.0825348,11.9918823 31.3201904,12.6228332 31.3201904,13.2770538 L31.3201904,28.8726807 Z M48.5111236,37.6716613 L38.8362885,47.3632812 C38.8202667,47.3796845 38.8008117,47.3876953 38.7779236,47.3876953 C38.7554169,47.3876953 38.7359619,47.3796845 38.7195587,47.3632812 L35.2813721,43.9189911 C35.2481842,43.8858032 35.2481842,43.832016 35.2813721,43.7988281 L35.8348847,43.2441711 C35.8348847,43.2441711 35.8352661,43.2437896 35.8352661,43.2437896 L41.4516449,37.6178741 L44.9562072,34.1072082 C44.9882508,34.0747833 45.0405121,34.0747833 45.0725556,34.1072082 L48.5111236,37.5514984 C48.5443115,37.5846863 48.5443115,37.6384735 48.5111236,37.6716613 L48.5111236,37.6716613 Z"/>
      <path d="M19.7071075 3.20358281C19.2771912 3.20358281 18.9273834 3.55415342 18.9273834 3.98483281 18.9273834 4.41589355 19.2771912 4.76608281 19.7071075 4.76608281 20.1374054 4.76608281 20.4872131 4.41589355 20.4872131 3.98483281 20.4872131 3.55415342 20.1374054 3.20358281 19.7071075 3.20358281zM45.2541352 36.5905762C44.8238373 36.5905762 44.4740295 36.9411469 44.4740295 37.3718262 44.4740295 37.8025055 44.8238373 38.1530762 45.2541352 38.1530762 45.6840516 38.1530762 46.0338593 37.8025055 46.0338593 37.3718262 46.0338593 36.9411469 45.6840516 36.5905762 45.2541352 36.5905762zM12.2055054 44.0628052C12.2055054 43.6321259 11.8556977 43.2815552 11.4257812 43.2815552 10.9954834 43.2815552 10.6456757 43.6321259 10.6456757 44.0628052 10.6456757 44.4934845 10.9954834 44.8440552 11.4257812 44.8440552 11.8556977 44.8440552 12.2055054 44.4934845 12.2055054 44.0628052z"/>
    </g>
  </g>
</svg>
